<svg width="128" height="121" viewBox="0 0 128 121" fill="none" xmlns="http://www.w3.org/2000/svg">
<rect x="4.66667" y="1.16667" width="118.667" height="118.667" rx="59.3333" fill="black"/>
<rect x="4.66667" y="1.16667" width="118.667" height="118.667" rx="59.3333" stroke="url(#paint0_linear_65_11455)" stroke-width="1.33333"/>
<g filter="url(#filter0_d_65_11455)">
<path fill-rule="evenodd" clip-rule="evenodd" d="M37.2829 47.082C35.6596 47.082 34.1027 47.7269 32.9549 48.8747C31.807 50.0225 31.1621 51.5793 31.1621 53.2025V56.969C31.1621 58.5922 31.807 60.149 32.9549 61.2968C34.1027 62.4446 35.6596 63.0894 37.2829 63.0894C38.9063 63.0894 40.4631 62.4446 41.611 61.2968C42.7589 60.149 43.4038 58.5922 43.4038 56.969V53.2025C43.4038 52.3988 43.2455 51.6029 42.9379 50.8603C42.6303 50.1177 42.1794 49.443 41.611 48.8747C41.0427 48.3063 40.3679 47.8555 39.6253 47.5479C38.8827 47.2403 38.0867 47.082 37.2829 47.082ZM40.5788 56.969C40.5788 57.4017 40.4935 57.8303 40.3279 58.2301C40.1623 58.63 39.9195 58.9933 39.6134 59.2993C39.3074 59.6054 38.9441 59.8481 38.5442 60.0137C38.1443 60.1794 37.7158 60.2646 37.2829 60.2646C36.8501 60.2646 36.4216 60.1794 36.0217 60.0137C35.6218 59.8481 35.2585 59.6054 34.9524 59.2993C34.6464 58.9933 34.4036 58.63 34.238 58.2301C34.0724 57.8303 33.9871 57.4017 33.9871 56.969V53.2025C33.9871 52.7697 34.0724 52.3412 34.238 51.9413C34.4036 51.5415 34.6464 51.1782 34.9524 50.8721C35.2585 50.5661 35.6218 50.3234 36.0217 50.1577C36.4216 49.9921 36.8501 49.9069 37.2829 49.9069C37.7158 49.9069 38.1443 49.9921 38.5442 50.1577C38.9441 50.3234 39.3074 50.5661 39.6134 50.8721C39.9195 51.1782 40.1623 51.5415 40.3279 51.9413C40.4935 52.3412 40.5788 52.7697 40.5788 53.2025V56.969Z" fill="white"/>
<path d="M28.8074 56.4981C28.8074 56.1235 28.6586 55.7643 28.3937 55.4994C28.1288 55.2345 27.7695 55.0857 27.3949 55.0857C27.0203 55.0857 26.661 55.2345 26.3961 55.4994C26.1312 55.7643 25.9824 56.1235 25.9824 56.4981V56.9689C25.9824 62.7316 30.2953 67.4867 35.8699 68.1816V71.0931H33.5158C33.1411 71.0931 32.7819 71.2419 32.517 71.5068C32.2521 71.7717 32.1033 72.1309 32.1033 72.5055C32.1033 72.8801 32.2521 73.2394 32.517 73.5042C32.7819 73.7691 33.1411 73.9179 33.5158 73.9179H41.0491C41.4237 73.9179 41.783 73.7691 42.0479 73.5042C42.3128 73.2394 42.4616 72.8801 42.4616 72.5055C42.4616 72.1309 42.3128 71.7717 42.0479 71.5068C41.783 71.2419 41.4237 71.0931 41.0491 71.0931H38.6949V68.1816C41.4258 67.8372 43.9372 66.508 45.7576 64.4436C47.5781 62.3791 48.5825 59.7213 48.5824 56.9689V56.4981C48.5824 56.1235 48.4336 55.7643 48.1687 55.4994C47.9038 55.2345 47.5445 55.0857 47.1699 55.0857C46.7953 55.0857 46.436 55.2345 46.1711 55.4994C45.9062 55.7643 45.7574 56.1235 45.7574 56.4981V56.9689C45.7574 58.0818 45.5382 59.1838 45.1123 60.212C44.6864 61.2401 44.0621 62.1744 43.2752 62.9613C42.4882 63.7482 41.5539 64.3725 40.5257 64.7983C39.4974 65.2242 38.3954 65.4434 37.2824 65.4434C36.1695 65.4434 35.0674 65.2242 34.0392 64.7983C33.0109 64.3725 32.0767 63.7482 31.2897 62.9613C30.5027 62.1744 29.8785 61.2401 29.4525 60.212C29.0266 59.1838 28.8074 58.0818 28.8074 56.9689V56.4981Z" fill="white"/>
<path fill-rule="evenodd" clip-rule="evenodd" d="M90.3001 56.0276C88.6478 56.0276 87.0633 56.6724 85.895 57.8202C84.7267 58.968 84.0703 60.5248 84.0703 62.1481C84.0703 63.7713 84.7267 65.3281 85.895 66.4759C87.0633 67.6237 88.6478 68.2685 90.3001 68.2685C91.9523 68.2685 93.5369 67.6237 94.7052 66.4759C95.8735 65.3281 96.5299 63.7713 96.5299 62.1481C96.5299 60.5248 95.8735 58.968 94.7052 57.8202C93.5369 56.6724 91.9523 56.0276 90.3001 56.0276ZM86.9456 62.1481C86.9456 61.7153 87.0324 61.2867 87.2009 60.8869C87.3695 60.487 87.6166 60.1237 87.9281 59.8177C88.2396 59.5117 88.6094 59.2689 89.0164 59.1033C89.4234 58.9377 89.8596 58.8524 90.3001 58.8524C90.7406 58.8524 91.1768 58.9377 91.5838 59.1033C91.9908 59.2689 92.3606 59.5117 92.6721 59.8177C92.9836 60.1237 93.2306 60.487 93.3992 60.8869C93.5678 61.2867 93.6546 61.7153 93.6546 62.1481C93.6546 63.0221 93.3012 63.8604 92.6721 64.4784C92.043 65.0965 91.1897 65.4437 90.3001 65.4437C89.4104 65.4437 88.5572 65.0965 87.9281 64.4784C87.299 63.8604 86.9456 63.0221 86.9456 62.1481Z" fill="white"/>
<path fill-rule="evenodd" clip-rule="evenodd" d="M87.5865 49.9072C86.6252 49.9072 85.6822 50.1655 84.8595 50.6541C84.0368 51.1427 83.3657 51.843 82.919 52.6793L82.2558 53.9185C82.1435 54.1287 81.9749 54.3048 81.7681 54.4276C81.5613 54.5504 81.3243 54.6153 81.0826 54.6153C78.7632 54.6153 76.8828 56.4627 76.8828 58.7414V67.327C76.8828 68.7006 77.4382 70.0178 78.4268 70.9891C79.4153 71.9603 80.7561 72.5059 82.1542 72.5059H98.4474C99.8455 72.5059 101.186 71.9603 102.175 70.9891C103.163 70.0178 103.719 68.7006 103.719 67.327V58.7414C103.719 56.4627 101.838 54.6153 99.5189 54.6153C99.2773 54.6153 99.0403 54.5504 98.8335 54.4276C98.6267 54.3048 98.4581 54.1287 98.3458 53.9185L97.6826 52.6793C97.2358 51.843 96.5648 51.1427 95.7421 50.6541C94.9194 50.1655 93.9764 49.9072 93.015 49.9072H87.5865ZM85.4646 53.9919C85.6677 53.6118 85.9728 53.2935 86.3468 53.0714C86.7208 52.8493 87.1495 52.732 87.5865 52.7321H93.015C93.9064 52.7321 94.721 53.2179 95.137 53.9919L95.7983 55.2311C96.1542 55.8975 96.6888 56.4555 97.3442 56.8449C97.9997 57.2342 98.7511 57.4401 99.517 57.4401C100.251 57.4401 100.843 58.0239 100.843 58.7414V67.327C100.843 68.6265 99.77 69.6811 98.4474 69.6811H82.1542C80.8315 69.6811 79.7581 68.6265 79.7581 67.327V58.7414C79.7581 58.0239 80.3523 57.4401 81.0826 57.4401C81.8486 57.4403 82.6001 57.2345 83.2556 56.8451C83.9111 56.4558 84.4456 55.8976 84.8013 55.2311L85.4646 53.9919Z" fill="white"/>
</g>
<line x1="64.5" y1="33" x2="64.5" y2="88" stroke="white" stroke-dasharray="2 2"/>
<defs>
<filter id="filter0_d_65_11455" x="0.283203" y="23.082" width="127.436" height="74.8359" filterUnits="userSpaceOnUse" color-interpolation-filters="sRGB">
<feFlood flood-opacity="0" result="BackgroundImageFix"/>
<feColorMatrix in="SourceAlpha" type="matrix" values="0 0 0 0 0 0 0 0 0 0 0 0 0 0 0 0 0 0 127 0" result="hardAlpha"/>
<feOffset/>
<feGaussianBlur stdDeviation="12"/>
<feComposite in2="hardAlpha" operator="out"/>
<feColorMatrix type="matrix" values="0 0 0 0 0.584314 0 0 0 0 0.921569 0 0 0 0 0.639216 0 0 0 1 0"/>
<feBlend mode="normal" in2="BackgroundImageFix" result="effect1_dropShadow_65_11455"/>
<feBlend mode="normal" in="SourceGraphic" in2="effect1_dropShadow_65_11455" result="shape"/>
</filter>
<linearGradient id="paint0_linear_65_11455" x1="124" y1="120.5" x2="56.6855" y2="-24.037" gradientUnits="userSpaceOnUse">
<stop stop-color="#464646"/>
<stop offset="1" stop-color="#1A1A1A"/>
</linearGradient>
</defs>
</svg>
