<svg xmlns="http://www.w3.org/2000/svg" width="162" height="156" viewBox="0 0 162 156" fill="none">
  <g opacity="0.29" filter="url(#filter0_f_1_1171)">
    <path d="M79.9239 15.2786C80.2233 14.3573 81.5267 14.3573 81.8261 15.2786L96.8488 61.5139C96.9827 61.9259 97.3667 62.2049 97.7999 62.2049H146.415C147.383 62.2049 147.786 63.4445 147.002 64.0139L107.672 92.5889C107.322 92.8436 107.175 93.2949 107.309 93.707L122.332 139.942C122.631 140.864 121.577 141.63 120.793 141.06L81.4628 112.485C81.1123 112.231 80.6377 112.231 80.2872 112.485L40.9571 141.06C40.1734 141.63 39.1189 140.864 39.4183 139.942L54.441 93.707C54.5749 93.2949 54.4282 92.8436 54.0778 92.5889L14.7477 64.0139C13.9639 63.4445 14.3667 62.2049 15.3354 62.2049H63.9501C64.3833 62.2049 64.7673 61.9259 64.9012 61.5139L79.9239 15.2786Z" fill="#79EA8C"/>
    <path d="M97.3243 61.3594L82.3016 15.1241C81.8526 13.7421 79.8974 13.7421 79.4484 15.1241L64.4257 61.3594C64.3587 61.5654 64.1667 61.7049 63.9501 61.7049H15.3354C13.8824 61.7049 13.2782 63.5643 14.4538 64.4184L53.7839 92.9934C53.9591 93.1208 54.0324 93.3464 53.9655 93.5524L38.9427 139.788C38.4937 141.17 40.0754 142.319 41.251 141.465L80.5811 112.89C80.7563 112.762 80.9937 112.762 81.1689 112.89L120.499 141.465C121.675 142.319 123.256 141.17 122.807 139.788L107.785 93.5524C107.718 93.3464 107.791 93.1208 107.966 92.9934L147.296 64.4184C148.472 63.5643 147.868 61.7049 146.415 61.7049H97.7999C97.5833 61.7049 97.3913 61.5654 97.3243 61.3594Z" stroke="url(#paint0_linear_1_1171)"/>
  </g>
  <defs>
    <filter id="filter0_f_1_1171" x="0.202031" y="0.457402" width="161.346" height="154.933" filterUnits="userSpaceOnUse" color-interpolation-filters="sRGB">
      <feFlood flood-opacity="0" result="BackgroundImageFix"/>
      <feBlend mode="normal" in="SourceGraphic" in2="BackgroundImageFix" result="shape"/>
      <feGaussianBlur stdDeviation="6.565" result="effect1_foregroundBlur_1_1171"/>
    </filter>
    <linearGradient id="paint0_linear_1_1171" x1="153.023" y1="156.648" x2="72.0795" y2="-17.1535" gradientUnits="userSpaceOnUse">
      <stop stop-color="#95EBA3"/>
      <stop offset="1" stop-color="#126D21"/>
    </linearGradient>
  </defs>
</svg>