<svg width="44" height="44" viewBox="0 0 44 44" fill="none" xmlns="http://www.w3.org/2000/svg">
<rect x="0.5" y="0.5" width="43" height="43" rx="21.5" fill="white" fill-opacity="0.1"/>
<rect x="0.5" y="0.5" width="43" height="43" rx="21.5" stroke="#71E684"/>
<path d="M21.9998 23.3998L17.0998 28.2998C16.9165 28.4831 16.6831 28.5748 16.3998 28.5748C16.1165 28.5748 15.8831 28.4831 15.6998 28.2998C15.5165 28.1165 15.4248 27.8831 15.4248 27.5998C15.4248 27.3165 15.5165 27.0831 15.6998 26.8998L20.5998 21.9998L15.6998 17.0998C15.5165 16.9165 15.4248 16.6831 15.4248 16.3998C15.4248 16.1165 15.5165 15.8831 15.6998 15.6998C15.8831 15.5165 16.1165 15.4248 16.3998 15.4248C16.6831 15.4248 16.9165 15.5165 17.0998 15.6998L21.9998 20.5998L26.8998 15.6998C27.0831 15.5165 27.3165 15.4248 27.5998 15.4248C27.8831 15.4248 28.1165 15.5165 28.2998 15.6998C28.4831 15.8831 28.5748 16.1165 28.5748 16.3998C28.5748 16.6831 28.4831 16.9165 28.2998 17.0998L23.3998 21.9998L28.2998 26.8998C28.4831 27.0831 28.5748 27.3165 28.5748 27.5998C28.5748 27.8831 28.4831 28.1165 28.2998 28.2998C28.1165 28.4831 27.8831 28.5748 27.5998 28.5748C27.3165 28.5748 27.0831 28.4831 26.8998 28.2998L21.9998 23.3998Z" fill="#71E684"/>
</svg>
