<svg width="56" height="56" viewBox="0 0 56 56" fill="none" xmlns="http://www.w3.org/2000/svg">
<rect width="56" height="56" rx="28" fill="#E83838"/>
<path d="M26.556 25.2423L26.556 22.626C26.556 22.0744 26.9944 21.636 27.5459 21.6219C27.7015 21.6219 27.85 21.6148 28.0055 21.6148C29.4692 21.6219 30.8976 21.735 32.2906 21.9542C33.6765 22.1805 34.9493 22.5199 36.0878 22.9795C37.2262 23.4533 38.1666 24.0543 38.902 24.7897C39.3829 25.2706 39.7576 25.815 40.0122 26.409C40.2738 27.0101 40.4011 27.6747 40.3799 28.4031C40.3728 29.3011 40.0971 30.0153 39.5738 30.5385C39.3758 30.7365 39.1354 30.8921 38.8738 30.984C38.6051 31.083 38.3151 31.1183 38.004 31.0618L34.0513 30.39C33.7472 30.3405 33.4927 30.2698 33.2735 30.1779C33.0613 30.093 32.8775 29.9799 32.7431 29.8455C32.5734 29.6758 32.4532 29.4566 32.3896 29.195C32.3189 28.9405 32.2835 28.6364 32.2835 28.297L32.2623 27.201C32.2623 27.0454 32.2057 26.9181 32.0926 26.805C32.036 26.7484 31.9795 26.706 31.9088 26.6636C31.831 26.6282 31.7673 26.607 31.7108 26.5787C31.3501 26.4726 30.8269 26.3878 30.1481 26.3312C29.4622 26.2817 28.748 26.2464 28.0055 26.2393C27.8641 26.2393 27.7156 26.2464 27.5742 26.2464C27.0156 26.2534 26.556 25.808 26.556 25.2423Z" fill="white"/>
<path d="M16.4447 30.5738C16.2467 30.3758 16.077 30.1354 15.9497 29.8667C15.9144 29.7889 15.879 29.7111 15.8507 29.6263C15.7164 29.2515 15.6315 28.8555 15.6103 28.4242C15.575 27.6958 15.681 27.0382 15.9356 26.4301C15.9427 26.4231 15.9427 26.4089 15.9497 26.4018C16.1972 25.8149 16.5578 25.2705 17.0457 24.7826C17.767 24.0613 18.7074 23.4603 19.8671 22.9936C21.0268 22.5269 22.3066 22.1804 23.6996 21.9612C24.1804 21.8905 24.6613 21.8198 25.1421 21.7774V26.4018C24.7956 26.4513 24.5057 26.515 24.2794 26.5857C24.2299 26.6069 24.1663 26.6281 24.0956 26.6564C24.0178 26.6918 23.9542 26.7413 23.8905 26.8049C23.7703 26.9251 23.7208 27.0595 23.7208 27.215L23.7138 28.2827C23.7138 28.6363 23.6784 28.9404 23.6006 29.1878C23.537 29.4495 23.4238 29.6616 23.2471 29.8384C23.1127 29.9727 22.943 30.0859 22.7238 30.1778C22.5046 30.2697 22.25 30.3404 21.9531 30.397L17.9508 31.0758C17.6397 31.1324 17.3639 31.1112 17.1094 31.0122C16.8619 30.9061 16.6427 30.7718 16.4447 30.5738Z" fill="white"/>
</svg>
