<svg width="21" height="21" viewBox="0 0 21 21" fill="none" xmlns="http://www.w3.org/2000/svg">
<path fill-rule="evenodd" clip-rule="evenodd" d="M0.844727 10.5732C0.844727 5.05924 5.33073 0.573242 10.8447 0.573242C16.3587 0.573242 20.8447 5.05924 20.8447 10.5732C20.8447 16.0872 16.3587 20.5732 10.8447 20.5732C5.33073 20.5732 0.844727 16.0872 0.844727 10.5732ZM8.55183 10.2803C8.3643 10.4679 8.10994 10.5732 7.84473 10.5732C7.57951 10.5732 7.32516 10.4679 7.13762 10.2803C6.95008 10.0928 6.84473 9.83846 6.84473 9.57324C6.84473 9.30803 6.95008 9.05367 7.13762 8.86614C7.32516 8.6786 7.57951 8.57324 7.84473 8.57324C8.10994 8.57324 8.3643 8.6786 8.55183 8.86614C8.73937 9.05367 8.84473 9.30803 8.84473 9.57324C8.84473 9.83846 8.73937 10.0928 8.55183 10.2803ZM13.1376 8.86614C13.3252 8.6786 13.5795 8.57324 13.8447 8.57324C14.1099 8.57324 14.3643 8.6786 14.5518 8.86614C14.7394 9.05367 14.8447 9.30803 14.8447 9.57324C14.8447 9.83846 14.7394 10.0928 14.5518 10.2803C14.3643 10.4679 14.1099 10.5732 13.8447 10.5732C13.5795 10.5732 13.3252 10.4679 13.1376 10.2803C12.9501 10.0928 12.8447 9.83846 12.8447 9.57324C12.8447 9.30803 12.9501 9.05367 13.1376 8.86614ZM10.8447 12.5732C10.5977 12.5732 8.39373 12.6092 7.13773 13.8662C6.95022 14.0538 6.84488 14.3081 6.84488 14.5732C6.84488 14.8384 6.95022 15.0927 7.13773 15.2802C7.32523 15.4678 7.57955 15.5731 7.84473 15.5731C8.1099 15.5731 8.36422 15.4678 8.55173 15.2802C9.12173 14.7102 10.4327 14.5752 10.8417 14.5732C11.2567 14.5752 12.5677 14.7102 13.1377 15.2802C13.2304 15.3734 13.3405 15.4474 13.4619 15.4978C13.5832 15.5483 13.7133 15.5743 13.8447 15.5743C13.9761 15.5743 14.1062 15.5483 14.2276 15.4978C14.3489 15.4474 14.4591 15.3734 14.5517 15.2802C14.6447 15.1875 14.7184 15.0773 14.7687 14.9559C14.819 14.8346 14.8449 14.7046 14.8449 14.5732C14.8449 14.4419 14.819 14.3119 14.7687 14.1905C14.7184 14.0692 14.6447 13.959 14.5517 13.8662C13.2957 12.6092 11.0917 12.5732 10.8447 12.5732Z" fill="#858585"/>
</svg>
