<svg width="24" height="24" viewBox="0 0 24 24" fill="none" xmlns="http://www.w3.org/2000/svg">
<rect x="24" y="24" width="24" height="24" rx="12" transform="rotate(180 24 24)" fill="#13AE5D"/>
<path d="M16.1356 14.1326L16.4881 12.0926C16.5088 11.973 16.5031 11.8504 16.4714 11.7333C16.4398 11.6161 16.3829 11.5073 16.3048 11.4144C16.2267 11.3216 16.1292 11.2469 16.0193 11.1956C15.9093 11.1443 15.7894 11.1177 15.6681 11.1176H13.0776C13.0171 11.1176 12.9574 11.1045 12.9025 11.0791C12.8477 11.0537 12.799 11.0166 12.7599 10.9705C12.7208 10.9244 12.6922 10.8704 12.6761 10.8121C12.66 10.7538 12.6567 10.6927 12.6666 10.6331L12.9981 8.6106C13.0516 8.2822 13.0363 7.94626 12.9531 7.6241C12.9172 7.4911 12.8483 7.3693 12.7529 7.26994C12.6575 7.17058 12.5385 7.09687 12.4071 7.0556L12.3346 7.0321C12.1706 6.97965 11.9929 6.99181 11.8376 7.0661C11.6676 7.1481 11.5436 7.2976 11.4976 7.4751L11.2596 8.3921C11.1839 8.68396 11.0738 8.96577 10.9316 9.2316C10.7241 9.6201 10.4031 9.9316 10.0691 10.2191L9.34959 10.8391C9.24977 10.9254 9.17182 11.034 9.1221 11.1562C9.07239 11.2784 9.05234 11.4107 9.06359 11.5421L9.46959 16.2386C9.48748 16.4463 9.58261 16.6398 9.73618 16.7807C9.88976 16.9217 10.0906 17 10.2991 17.0001H12.6231C14.3641 17.0001 15.8496 15.7871 16.1356 14.1326Z" fill="#161618"/>
<path fill-rule="evenodd" clip-rule="evenodd" d="M7.48404 10.7425C7.58067 10.7383 7.67519 10.7716 7.74787 10.8354C7.82054 10.8992 7.86575 10.9887 7.87404 11.085L8.35904 16.703C8.36725 16.7867 8.35833 16.8712 8.33281 16.9513C8.30729 17.0314 8.26571 17.1054 8.21061 17.1689C8.15551 17.2324 8.08805 17.284 8.01234 17.3205C7.93663 17.357 7.85427 17.3778 7.77029 17.3814C7.68631 17.3851 7.60246 17.3715 7.52388 17.3417C7.44529 17.3118 7.37362 17.2663 7.31323 17.2078C7.25284 17.1493 7.20501 17.0791 7.17265 17.0016C7.1403 16.924 7.12409 16.8406 7.12504 16.7565V11.117C7.12508 11.0204 7.16244 10.9275 7.22933 10.8577C7.29622 10.7879 7.38747 10.7467 7.48404 10.7425Z" fill="#161618"/>
</svg>
