<svg width="32" height="32" viewBox="0 0 32 32" fill="none" xmlns="http://www.w3.org/2000/svg">
<path d="M12.2037 7.21075C13.893 4.18141 14.737 2.66675 15.9997 2.66675C17.2623 2.66675 18.1063 4.18141 19.7957 7.21075L20.233 7.99475C20.713 8.85608 20.953 9.28675 21.3263 9.57075C21.6997 9.85475 22.1663 9.96008 23.0997 10.1707L23.9477 10.3627C27.2277 11.1054 28.8663 11.4761 29.257 12.7307C29.6463 13.9841 28.529 15.2921 26.293 17.9067L25.7143 18.5827C25.0797 19.3254 24.761 19.6974 24.6183 20.1561C24.4757 20.6161 24.5237 21.1121 24.6197 22.1027L24.7077 23.0054C25.045 26.4947 25.2143 28.2387 24.193 29.0134C23.1717 29.7881 21.6357 29.0814 18.5663 27.6681L17.7703 27.3027C16.8983 26.9001 16.4623 26.7001 15.9997 26.7001C15.537 26.7001 15.101 26.9001 14.229 27.3027L13.4343 27.6681C10.3637 29.0814 8.82766 29.7881 7.80766 29.0147C6.785 28.2387 6.95433 26.4947 7.29166 23.0054L7.37966 22.1041C7.47566 21.1121 7.52366 20.6161 7.37966 20.1574C7.23833 19.6974 6.91966 19.3254 6.285 18.5841L5.70633 17.9067C3.47033 15.2934 2.353 13.9854 2.74233 12.7307C3.13166 11.4761 4.773 11.1041 8.053 10.3627L8.901 10.1707C9.833 9.96008 10.2983 9.85475 10.673 9.57075C11.0477 9.28675 11.2863 8.85608 11.7663 7.99475L12.2037 7.21075Z" stroke="#71E684" stroke-width="1.5"/>
</svg>
