<svg width="21" height="21" viewBox="0 0 21 21" fill="none" xmlns="http://www.w3.org/2000/svg">
<path fill-rule="evenodd" clip-rule="evenodd" d="M10.3447 20.5732C15.8676 20.5732 20.3447 16.0961 20.3447 10.5732C20.3447 5.05039 15.8676 0.573242 10.3447 0.573242C4.82188 0.573242 0.344727 5.05039 0.344727 10.5732C0.344727 16.0961 4.82188 20.5732 10.3447 20.5732ZM9.20464 8.89324V15.3972H11.4846V8.89324H9.20464ZM9.33664 7.82524C9.59264 8.05724 9.92864 8.17324 10.3446 8.17324C10.7686 8.17324 11.1046 8.05724 11.3526 7.82524C11.6086 7.58524 11.7366 7.28524 11.7366 6.92524C11.7366 6.58124 11.6086 6.30124 11.3526 6.08524C11.0966 5.86124 10.7606 5.74924 10.3446 5.74924C9.92864 5.74924 9.59264 5.86524 9.33664 6.09724C9.08064 6.32924 8.95264 6.61724 8.95264 6.96124C8.95264 7.30524 9.08064 7.59324 9.33664 7.82524Z" fill="white"/>
</svg>
