<svg width="180" height="64" viewBox="0 0 180 64" fill="none" xmlns="http://www.w3.org/2000/svg">
<g id="logo">
<path id="Vector" d="M31.1336 0.0016868C13.3369 0.176592 -0.0653503 13.7973 0.000239705 31.8125C0.0658297 49.9151 13.6867 63.2953 31.9644 63.2079C49.8268 63.1204 63.3383 49.4341 63.229 31.572C63.1853 13.2726 49.3677 -0.173218 31.1336 0.0016868ZM53.5654 53.3039C47.9684 58.9664 40.2725 62.1147 31.9207 62.1584C31.8551 62.1584 31.7895 62.1584 31.7239 62.1584C23.2191 62.1584 15.4358 59.0757 9.79502 53.4788C4.17614 47.9037 1.04968 40.2079 1.00595 31.7906C0.98409 14.4313 13.9272 1.22602 31.1555 1.05112C39.7259 0.963663 47.5967 4.0245 53.3249 9.7089C59.0094 15.3277 62.1577 23.0891 62.1796 31.572C62.2452 39.9018 59.1843 47.6195 53.5654 53.3039Z" fill="white"/>
<path id="Vector_2" d="M117.779 27.9421V28.4012C117.779 34.2387 117.779 40.0761 117.779 45.9135C117.779 46.3945 117.779 46.3945 117.298 46.3945C114.806 46.3945 112.292 46.3945 109.799 46.3945C109.668 46.3945 109.537 46.3945 109.384 46.3945V12.9003H109.821C111.986 12.9003 114.128 12.9003 116.293 12.9003C116.599 12.9003 116.795 12.9877 116.992 13.2282C121.562 18.9782 126.131 24.7282 130.701 30.4782C130.919 30.7624 131.138 31.0248 131.444 31.2653V12.9003C131.619 12.9003 131.728 12.8784 131.837 12.8784C134.352 12.8784 136.888 12.8784 139.402 12.8784C139.752 12.8784 139.818 12.9877 139.818 13.3157C139.818 24.1816 139.818 35.0695 139.818 45.9354C139.818 46.2634 139.752 46.3727 139.402 46.3727C137.281 46.3508 135.183 46.3508 133.062 46.3727C132.799 46.3727 132.646 46.2852 132.471 46.0884C130.045 43.0495 127.618 40.0324 125.191 37.0153C122.83 34.0637 120.468 31.1122 118.085 28.1826C118.02 28.0951 117.932 28.0077 117.845 27.9202C117.845 27.9202 117.801 27.9202 117.779 27.9421Z" fill="white"/>
<path id="Vector_3" d="M102.124 23.1755C100.594 22.2791 99.0197 21.6013 97.3581 21.0766C95.0188 20.3333 92.6575 19.8741 90.187 20.0053C89.4217 20.049 88.6347 20.2021 87.8913 20.3988C86.9512 20.6612 86.4702 21.3608 86.4702 22.2135C86.4702 22.7601 86.7763 23.1317 87.2135 23.3941C87.6727 23.6564 88.1755 23.8969 88.6784 24.05C90.4493 24.5966 92.2203 25.0994 93.9912 25.646C96.1119 26.3019 98.1452 27.1327 100.004 28.357C102.102 29.7562 103.589 31.6146 104.114 34.1507C104.967 38.4359 103.327 42.6336 99.2602 44.9729C97.533 45.9786 95.6747 46.5252 93.707 46.8313C92.1547 47.0718 90.6024 47.0937 89.0501 47.0062C85.2677 46.8094 81.6821 45.9349 78.4026 43.9891C77.8342 43.6612 77.6374 43.3113 77.6374 42.6336C77.6811 40.1631 77.6593 37.6925 77.6593 35.2001V34.7847C77.8779 34.9597 78.0309 35.0908 78.2059 35.2001C80.4359 36.8617 82.9502 37.9112 85.6175 38.6326C87.3666 39.1136 89.1594 39.376 90.974 39.2885C92.0672 39.223 93.1822 39.0918 94.1661 38.5671C94.8876 38.1954 95.3686 37.6269 95.4342 36.7962C95.4998 35.856 95.0625 35.1783 94.2754 34.7192C93.2916 34.1289 92.1765 33.8228 91.0615 33.4948C88.5909 32.7733 86.0985 32.0737 83.7373 31.0462C82.5785 30.5433 81.4854 29.9311 80.5234 29.1003C78.8618 27.6574 77.9435 25.8427 77.703 23.6564C77.55 22.1479 77.6155 20.6393 78.0747 19.1745C78.7087 17.1194 79.9768 15.5671 81.7914 14.4084C83.4093 13.3808 85.2021 12.8342 87.0824 12.5063C88.8314 12.2002 90.5805 12.1565 92.3296 12.2658C95.6965 12.4625 98.9104 13.3152 101.928 14.8893C102.015 14.9331 102.124 15.0861 102.124 15.1736C102.124 17.7753 102.124 20.3988 102.124 23.0005C102.168 23.0443 102.146 23.088 102.124 23.1755Z" fill="white"/>
<path id="Vector_4" d="M180 46.3509C179.869 46.3509 179.76 46.3728 179.65 46.3728C176.83 46.3728 174.01 46.3728 171.189 46.3728C170.905 46.3728 170.796 46.2635 170.686 46.023C169.856 43.9022 169.003 41.7815 168.15 39.6608C168.041 39.3766 167.91 39.2673 167.582 39.2673C163.668 39.2891 159.777 39.2891 155.863 39.2673C155.557 39.2673 155.426 39.3547 155.316 39.6389C154.486 41.7815 153.611 43.9022 152.78 46.023C152.671 46.2853 152.562 46.3728 152.277 46.3728C149.501 46.3509 146.724 46.3728 143.947 46.3728C143.838 46.3728 143.751 46.3728 143.598 46.3728C143.663 46.2197 143.707 46.0886 143.751 45.9792C148.342 35.004 152.933 24.0068 157.525 13.0316C157.612 12.7911 157.743 12.7036 158.006 12.7036C160.498 12.7255 163.012 12.7255 165.505 12.7036C165.833 12.7036 165.986 12.7911 166.117 13.0971C169.375 20.946 172.654 28.773 175.934 36.6218C177.245 39.7483 178.535 42.8747 179.847 45.9792C179.913 46.1104 179.935 46.2197 180 46.3509ZM161.788 23.504C161.766 23.504 161.722 23.504 161.7 23.504C160.542 26.4774 159.383 29.4507 158.202 32.4678H165.286C164.105 29.4289 162.947 26.4555 161.788 23.504Z" fill="white"/>
<path id="Vector_5" d="M51.2265 11.8069C46.1324 6.77843 39.1361 4.02368 31.5058 4.02368C31.3965 4.02368 31.2872 4.02368 31.1778 4.02368C23.6568 4.11113 16.748 6.95334 11.7632 12.0474C6.75649 17.1634 4.00171 24.1596 4.04543 31.7679C4.0673 39.3763 6.88767 46.3288 11.9381 51.3354C17.0323 56.3858 24.0723 59.1405 31.7681 59.1405C31.8337 59.1405 31.8775 59.1405 31.9431 59.1405C39.4859 59.0968 46.4166 56.2765 51.467 51.1605C56.5174 46.0664 59.2722 39.0921 59.2285 31.5274C59.1848 23.8972 56.3425 16.8792 51.2265 11.8069ZM24.2909 22.7822C24.6188 21.7765 24.9468 20.7708 25.3403 19.787C25.4059 19.6121 25.6901 19.459 25.9088 19.3934C27.5048 18.8687 28.904 19.459 30.2158 20.2898C30.347 20.3773 30.4563 20.5959 30.5001 20.7708C30.675 21.8202 30.828 22.8697 31.0248 23.9191C31.1341 24.5531 30.7843 24.8811 30.3033 25.0341C29.56 25.2746 28.7729 25.3839 28.1826 25.5151C26.7396 25.4276 25.6901 24.9685 24.75 24.1596C24.3127 23.7879 24.116 23.3288 24.2909 22.7822ZM53.6971 41.8687C53.6534 42.1092 53.6096 42.3715 53.5659 42.612C53.5222 42.8525 53.4784 43.1149 53.4129 43.3554C53.3473 43.5959 53.2817 43.8364 53.2161 44.0769C53.1286 44.3174 53.0412 44.536 52.9319 44.7765C52.8663 44.9077 52.7788 45.0388 52.6476 45.17C52.5165 45.3012 52.4071 45.4105 52.2541 45.5198C52.1229 45.6291 51.9699 45.7385 51.8168 45.8259C51.6638 45.9134 44.3833 49.0616 38.83 49.9799C37.5619 50.1767 36.3376 50.4827 35.0695 50.5921C33.8014 50.7014 32.5334 50.7232 31.2653 50.6358C29.9972 50.5483 28.7073 50.3516 27.4173 50.0236C27.308 50.0018 27.2206 49.958 27.1113 49.9143C27.0019 49.8706 26.9145 49.805 26.8052 49.7394C26.7177 49.6738 26.6084 49.6082 26.5209 49.5208C26.4335 49.4552 26.346 49.3677 26.2804 49.2803C25.8432 48.7774 22.2576 42.0655 22.1701 41.9561C22.0827 41.8468 21.9734 41.7812 21.8641 41.7375C21.7547 41.6938 21.6236 41.6938 21.4924 41.6938C21.3612 41.6938 21.2082 41.7156 21.0551 41.7375C20.7272 41.8031 20.4211 41.8468 20.0931 41.9124C19.7652 41.978 19.4591 42.0217 19.1311 42.0873C18.8032 42.1529 18.4971 42.1966 18.1692 42.2622C17.8412 42.3278 17.5351 42.3715 17.2072 42.4371C16.9885 42.4809 16.7699 42.5027 16.5513 42.5027C16.3545 42.5027 16.1577 42.459 15.961 42.3934C15.786 42.3278 15.1739 42.1092 14.999 41.978C13.5123 40.8848 13.4904 39.0921 13.3592 38.5018C13.075 37.1463 13.0094 35.2879 12.9875 34.9381C12.9657 34.7632 12.922 34.5008 12.9001 34.1729C12.8345 33.3202 12.8564 32.7736 12.8345 31.9428C12.8126 31.1995 12.7908 30.4562 12.7908 29.7128C12.7689 28.9695 12.7689 28.2261 12.747 27.4828C12.7252 26.7394 12.7252 25.9961 12.7033 25.2527C12.6815 24.5531 12.6596 23.8316 12.6377 23.132C12.6159 22.4324 12.594 21.7109 12.5503 21.0113C12.5284 20.3117 12.5065 19.5902 12.4847 18.8906C12.4628 18.191 12.4628 17.4695 12.4847 16.7699C12.4847 16.5512 12.6596 14.7803 13.228 14.1026C13.4904 13.7746 13.6434 13.7746 13.7965 13.6653C13.9495 13.556 14.8241 13.4685 14.999 13.4685C16.3982 13.4685 17.229 14.037 17.5133 15.7642C17.557 16.0702 18.2566 29.5598 18.2566 30.2157C18.2566 30.6311 18.2785 31.0246 18.3222 31.44C18.3659 31.8554 18.4096 32.2489 18.4752 32.6643C18.5408 33.0797 18.6064 33.4733 18.672 33.8887C18.7376 34.3041 18.8032 34.6976 18.8469 35.113C18.8688 35.2004 18.8688 35.3098 18.8906 35.3972C18.8906 35.3972 18.8906 35.4191 18.8906 35.4409C18.8906 35.4847 18.9125 35.5284 18.8906 35.4847V35.4628C18.9344 35.6814 19.0218 36.228 19.3716 36.228C19.481 36.2061 23.1103 35.7252 25.3403 35.6596C26.3679 35.6377 26.4335 36.075 26.5209 36.228C26.6521 36.5122 28.598 41.825 28.751 42.2404C29.0134 42.94 29.5162 43.6177 29.6693 43.8582C30.1503 44.7328 30.6094 44.8639 30.6968 44.9077C30.7843 44.9514 31.9868 45.2137 32.4896 45.2356C32.9925 45.2575 33.4954 45.2356 34.0201 45.1919C34.5229 45.1482 35.0258 45.0826 35.5286 44.9732C36.0315 44.8858 36.5344 44.7765 37.0372 44.6672C38.1522 44.4267 39.2673 44.1424 40.3604 43.8364C41.4536 43.5084 42.5249 43.1586 43.5962 42.7651C44.6675 42.3715 45.717 41.9561 46.7664 41.5189C47.8158 41.0816 48.8653 40.6225 49.9147 40.1634C50.024 40.1196 50.1334 40.0759 50.2427 40.0322C50.352 39.9885 50.4613 39.9447 50.5706 39.9229C50.6799 39.8792 50.7893 39.8573 50.8986 39.8136C51.0079 39.7698 51.1172 39.748 51.2265 39.7042C51.6201 39.5949 51.9917 39.5731 52.3197 39.6168C52.6476 39.6824 52.9319 39.8136 53.1724 40.0103C53.4129 40.2071 53.5659 40.4913 53.6752 40.7974C53.7408 41.0816 53.7627 41.4533 53.6971 41.8687Z" fill="white"/>
</g>
</svg>
