<svg width="28" height="28" viewBox="0 0 28 28" fill="none" xmlns="http://www.w3.org/2000/svg">
<path fill-rule="evenodd" clip-rule="evenodd" d="M2.41467 6.13437C2.33301 6.56371 2.33301 7.07937 2.33301 8.10837V16.3334C2.33301 20.7329 2.33301 22.9332 3.70034 24.2994C5.06767 25.6655 7.26684 25.6667 11.6663 25.6667H16.333C20.7325 25.6667 22.9328 25.6667 24.299 24.2994C25.6652 22.932 25.6663 20.7329 25.6663 16.3334V13.7644C25.6663 10.6937 25.6663 9.15721 24.768 8.15971C24.6856 8.06766 24.5984 7.98003 24.5067 7.89721C23.5092 7.00004 21.9727 7.00004 18.902 7.00004H18.4657C17.1205 7.00004 16.4473 7.00004 15.8197 6.82154C15.4752 6.72308 15.1433 6.58528 14.8303 6.41087C14.261 6.09471 13.785 5.61754 12.833 4.66671L12.1913 4.02504C11.8717 3.70537 11.713 3.54671 11.545 3.40671C10.8225 2.80779 9.9361 2.44064 9.00167 2.35321C8.78467 2.33337 8.55834 2.33337 8.10801 2.33337C7.07784 2.33337 6.56334 2.33337 6.13401 2.41504C5.21215 2.58914 4.36417 3.03703 3.7007 3.7003C3.03722 4.36357 2.58906 5.21257 2.41467 6.13437ZM18.9965 3.50004C19.4223 3.50004 19.6358 3.50004 19.8155 3.52337C21.0032 3.68671 21.9482 4.62354 22.1652 5.83337C21.9875 5.7935 21.808 5.76196 21.6273 5.73887C20.8807 5.64087 19.938 5.64087 18.769 5.64087H18.3793C17.2803 5.64087 16.8627 5.63504 16.4835 5.52304C16.2627 5.4577 16.0505 5.36646 15.8512 5.25121C15.5058 5.05287 15.2072 4.75187 14.4302 3.94687L13.9997 3.50004H18.9965ZM15.1663 10.7917C14.9343 10.7917 14.7117 10.8839 14.5476 11.048C14.3835 11.2121 14.2913 11.4346 14.2913 11.6667C14.2913 11.8988 14.3835 12.1213 14.5476 12.2854C14.7117 12.4495 14.9343 12.5417 15.1663 12.5417H20.9997C21.2317 12.5417 21.4543 12.4495 21.6184 12.2854C21.7825 12.1213 21.8747 11.8988 21.8747 11.6667C21.8747 11.4346 21.7825 11.2121 21.6184 11.048C21.4543 10.8839 21.2317 10.7917 20.9997 10.7917H15.1663Z" fill="#A3A3A3"/>
</svg>
