<svg width="134" height="142" viewBox="0 0 134 142" fill="none" xmlns="http://www.w3.org/2000/svg">
<g filter="url(#filter0_f_886_2652)">
<circle cx="4.86096" cy="4.86096" r="5.67113" transform="matrix(1 0 0 -1 26.252 114.401)" fill="#434343" stroke="#434343" stroke-width="1.62032" stroke-linecap="round"/>
<circle cx="16.2032" cy="16.2032" r="15.069" transform="matrix(1 0 0 -1 14.9102 122.503)" stroke="#434343" stroke-width="2.26845"/>
<path d="M37.7908 100.551C39.487 99.2998 40.7555 97.6059 41.4529 95.686C41.5117 95.5242 41.4689 95.3153 41.3104 95.1679C37.2255 91.3706 33.0998 90.5355 29.5322 91.0396C25.9243 91.5494 22.8246 93.4408 20.9004 95.1879C20.7572 95.318 20.7121 95.5103 20.7732 95.679C21.4701 97.6018 22.7396 99.2983 24.4379 100.551C26.3498 101.961 28.6966 102.728 31.1143 102.728C33.5321 102.728 35.8789 101.961 37.7908 100.551Z" fill="#434343" stroke="#434343" stroke-width="1.62032" stroke-linecap="round"/>
<circle cx="4.86096" cy="4.86096" r="5.67113" transform="matrix(1 0 0 -1 97.9883 114.402)" fill="#434343" stroke="#434343" stroke-width="1.62032" stroke-linecap="round"/>
<circle cx="16.2032" cy="16.2032" r="15.069" transform="matrix(1 0 0 -1 86.6465 122.504)" stroke="#434343" stroke-width="2.26845"/>
<path d="M109.527 100.552C111.223 99.3008 112.492 97.6069 113.189 95.687C113.248 95.5252 113.205 95.3163 113.047 95.1689C108.962 91.3716 104.836 90.5365 101.269 91.0406C97.6606 91.5504 94.5609 93.4418 92.6367 95.1889C92.4935 95.319 92.4484 95.5112 92.5096 95.68C93.2064 97.6027 94.4759 99.2993 96.1743 100.552C98.0861 101.962 100.433 102.729 102.851 102.729C105.268 102.729 107.615 101.962 109.527 100.552Z" fill="#434343" stroke="#434343" stroke-width="1.62032" stroke-linecap="round"/>
<circle cx="4.86096" cy="4.86096" r="5.67113" transform="matrix(1 0 0 -1 62.1211 127.227)" fill="#434343" stroke="#434343" stroke-width="1.62032" stroke-linecap="round"/>
<circle cx="16.2032" cy="16.2032" r="15.069" transform="matrix(1 0 0 -1 50.7793 135.328)" stroke="#434343" stroke-width="2.26845"/>
<path d="M73.6599 113.376C75.3561 112.125 76.6246 110.431 77.322 108.511C77.3808 108.349 77.338 108.14 77.1795 107.993C73.0947 104.196 68.9689 103.361 65.4013 103.865C61.7934 104.375 58.6937 106.266 56.7695 108.013C56.6263 108.143 56.5812 108.335 56.6424 108.504C57.3392 110.427 58.6088 112.123 60.3071 113.376C62.219 114.786 64.5657 115.553 66.9835 115.553C69.4012 115.553 71.748 114.786 73.6599 113.376Z" fill="#434343" stroke="#434343" stroke-width="1.62032" stroke-linecap="round"/>
</g>
<path d="M66.0566 7.47359C66.3476 6.57789 67.6148 6.5779 67.9058 7.47359L73.6919 25.2813C73.822 25.6819 74.1953 25.9531 74.6165 25.9531H93.3407C94.2825 25.9531 94.674 27.1582 93.9121 27.7118L78.7639 38.7176C78.4232 38.9652 78.2806 39.404 78.4108 39.8045L84.1969 57.6123C84.4879 58.508 83.4627 59.2528 82.7008 58.6992L67.5526 47.6934C67.2119 47.4459 66.7505 47.4459 66.4098 47.6934L51.2616 58.6992C50.4997 59.2528 49.4745 58.508 49.7655 57.6123L55.5516 39.8045C55.6818 39.404 55.5392 38.9651 55.1985 38.7176L40.0503 27.7118C39.2884 27.1582 39.68 25.9531 40.6217 25.9531H59.3459C59.7671 25.9531 60.1404 25.6819 60.2705 25.2813L66.0566 7.47359Z" fill="#434343"/>
<circle cx="31.1129" cy="70.1364" r="5.67113" fill="#434343" stroke="#434343" stroke-width="1.62032" stroke-linecap="round"/>
<circle cx="31.1134" cy="73.377" r="15.069" stroke="#434343" stroke-width="2.26845"/>
<path d="M37.7908 79.1259C39.487 80.3769 40.7555 82.0709 41.4529 83.9907C41.5117 84.1526 41.4689 84.3615 41.3104 84.5088C37.2255 88.3062 33.0998 89.1412 29.5322 88.6371C25.9243 88.1273 22.8246 86.236 20.9004 84.4888C20.7572 84.3587 20.7121 84.1665 20.7732 83.9978C21.4701 82.075 22.7396 80.3785 24.4379 79.1259C26.3498 77.7158 28.6966 76.9488 31.1143 76.9488C33.5321 76.9488 35.8789 77.7158 37.7908 79.1259Z" fill="#434343" stroke="#434343" stroke-width="1.62032" stroke-linecap="round"/>
<circle cx="102.849" cy="70.1364" r="5.67113" fill="#434343" stroke="#434343" stroke-width="1.62032" stroke-linecap="round"/>
<circle cx="102.85" cy="73.377" r="15.069" stroke="#434343" stroke-width="2.26845"/>
<path d="M109.527 79.1259C111.223 80.3769 112.492 82.0709 113.189 83.9907C113.248 84.1526 113.205 84.3615 113.047 84.5088C108.962 88.3062 104.836 89.1412 101.269 88.6371C97.6606 88.1273 94.5609 86.236 92.6367 84.4888C92.4935 84.3587 92.4484 84.1665 92.5096 83.9978C93.2064 82.075 94.4759 80.3785 96.1743 79.1259C98.0861 77.7158 100.433 76.9488 102.851 76.9488C105.268 76.9488 107.615 77.7158 109.527 79.1259Z" fill="#434343" stroke="#434343" stroke-width="1.62032" stroke-linecap="round"/>
<circle cx="66.9801" cy="82.4791" r="5.67113" fill="#434343" stroke="#434343" stroke-width="1.62032" stroke-linecap="round"/>
<circle cx="66.9806" cy="85.7198" r="15.069" stroke="#434343" stroke-width="2.26845"/>
<path d="M73.6579 91.4687C75.3542 92.7197 76.6227 94.4136 77.3201 96.3335C77.3789 96.4954 77.336 96.7042 77.1776 96.8516C73.0927 100.649 68.967 101.484 65.3994 100.98C61.7915 100.47 58.6918 98.5788 56.7676 96.8316C56.6243 96.7015 56.5793 96.5093 56.6404 96.3405C57.3373 94.4178 58.6068 92.7212 60.3051 91.4687C62.217 90.0586 64.5638 89.2916 66.9815 89.2916C69.3993 89.2916 71.7461 90.0586 73.6579 91.4687Z" fill="#434343" stroke="#434343" stroke-width="1.62032" stroke-linecap="round"/>
<circle cx="90.6041" cy="45.8531" r="3.37287" stroke="#434343" stroke-width="0.810161"/>
<g opacity="0.7">
<circle cx="48.0056" cy="8.49197" r="2.14548" stroke="#434343" stroke-width="0.810161"/>
<path d="M48.002 4.48242L48.002 0.401524" stroke="#434343" stroke-width="0.810161" stroke-linecap="round"/>
<path d="M48.002 16.709L48.002 12.6281" stroke="#434343" stroke-width="0.810161" stroke-linecap="round"/>
<path d="M50.8828 5.6748L53.7684 2.78917" stroke="#434343" stroke-width="0.810161" stroke-linecap="round"/>
<path d="M42.2363 14.3203L45.122 11.4347" stroke="#434343" stroke-width="0.810161" stroke-linecap="round"/>
<path d="M52.0762 8.55566L56.1571 8.55566" stroke="#434343" stroke-width="0.810161" stroke-linecap="round"/>
<path d="M39.8496 8.55566L43.9305 8.55566" stroke="#434343" stroke-width="0.810161" stroke-linecap="round"/>
<path d="M50.8828 11.4355L53.7684 14.3212" stroke="#434343" stroke-width="0.810161" stroke-linecap="round"/>
<path d="M42.2363 2.79004L45.122 5.67567" stroke="#434343" stroke-width="0.810161" stroke-linecap="round"/>
</g>
<defs>
<filter id="filter0_f_886_2652" x="8.42887" y="83.6154" width="117.105" height="58.194" filterUnits="userSpaceOnUse" color-interpolation-filters="sRGB">
<feFlood flood-opacity="0" result="BackgroundImageFix"/>
<feBlend mode="normal" in="SourceGraphic" in2="BackgroundImageFix" result="shape"/>
<feGaussianBlur stdDeviation="3.24064" result="effect1_foregroundBlur_886_2652"/>
</filter>
</defs>
</svg>
