<svg width="28" height="28" viewBox="0 0 28 28" fill="none" xmlns="http://www.w3.org/2000/svg">
<path fill-rule="evenodd" clip-rule="evenodd" d="M2.93967 9.12675C2.33301 10.2316 2.33301 11.5674 2.33301 14.2368V16.0124C2.33301 20.5624 2.33301 22.8386 3.70034 24.2526C5.06767 25.6666 7.26684 25.6666 11.6663 25.6666H16.333C20.7325 25.6666 22.9328 25.6666 24.299 24.2526C25.6652 22.8386 25.6663 20.5636 25.6663 16.0124V14.2379C25.6663 11.5674 25.6663 10.2328 25.0597 9.12675C24.4553 8.01959 23.3482 7.33358 21.135 5.95925L18.8017 4.51142C16.4625 3.05892 15.2923 2.33325 13.9997 2.33325C12.707 2.33325 11.538 3.05892 9.19767 4.51142L6.86434 5.95925C4.65117 7.33358 3.54517 8.01959 2.93967 9.12675ZM13.1247 20.9999C13.1247 21.232 13.2169 21.4545 13.381 21.6186C13.5451 21.7827 13.7676 21.8749 13.9997 21.8749C14.2317 21.8749 14.4543 21.7827 14.6184 21.6186C14.7825 21.4545 14.8747 21.232 14.8747 20.9999V17.4999C14.8747 17.2679 14.7825 17.0453 14.6184 16.8812C14.4543 16.7171 14.2317 16.6249 13.9997 16.6249C13.7676 16.6249 13.5451 16.7171 13.381 16.8812C13.2169 17.0453 13.1247 17.2679 13.1247 17.4999V20.9999Z" fill="#A9A9AA"/>
</svg>
