<svg width="33" height="32" viewBox="0 0 33 32" fill="none" xmlns="http://www.w3.org/2000/svg">
<path d="M12.7037 7.21063C14.393 4.18129 15.237 2.66663 16.4997 2.66663C17.7623 2.66663 18.6063 4.18129 20.2957 7.21063L20.733 7.99463C21.213 8.85596 21.453 9.28663 21.8263 9.57063C22.1997 9.85463 22.6663 9.95996 23.5997 10.1706L24.4477 10.3626C27.7277 11.1053 29.3663 11.476 29.757 12.7306C30.1463 13.984 29.029 15.292 26.793 17.9066L26.2143 18.5826C25.5797 19.3253 25.261 19.6973 25.1183 20.156C24.9757 20.616 25.0237 21.112 25.1197 22.1026L25.2077 23.0053C25.545 26.4946 25.7143 28.2386 24.693 29.0133C23.6717 29.788 22.1357 29.0813 19.0663 27.668L18.2703 27.3026C17.3983 26.9 16.9623 26.7 16.4997 26.7C16.037 26.7 15.601 26.9 14.729 27.3026L13.9343 27.668C10.8637 29.0813 9.32766 29.788 8.30766 29.0146C7.285 28.2386 7.45433 26.4946 7.79166 23.0053L7.87966 22.104C7.97566 21.112 8.02366 20.616 7.87966 20.1573C7.73833 19.6973 7.41966 19.3253 6.785 18.584L6.20633 17.9066C3.97033 15.2933 2.853 13.9853 3.24233 12.7306C3.63166 11.476 5.273 11.104 8.553 10.3626L9.401 10.1706C10.333 9.95996 10.7983 9.85463 11.173 9.57063C11.5477 9.28663 11.7863 8.85596 12.2663 7.99463L12.7037 7.21063Z" fill="#EBB495" stroke="#EBB495" stroke-width="1.5"/>
</svg>
