<svg width="32" height="32" viewBox="0 0 32 32" fill="none" xmlns="http://www.w3.org/2000/svg">
<path d="M12.2037 7.21063C13.893 4.18129 14.737 2.66663 15.9997 2.66663C17.2623 2.66663 18.1063 4.18129 19.7957 7.21063L20.233 7.99463C20.713 8.85596 20.953 9.28663 21.3263 9.57063C21.6997 9.85463 22.1663 9.95996 23.0997 10.1706L23.9477 10.3626C27.2277 11.1053 28.8663 11.476 29.257 12.7306C29.6463 13.984 28.529 15.292 26.293 17.9066L25.7143 18.5826C25.0797 19.3253 24.761 19.6973 24.6183 20.156C24.4757 20.616 24.5237 21.112 24.6197 22.1026L24.7077 23.0053C25.045 26.4946 25.2143 28.2386 24.193 29.0133C23.1717 29.788 21.6357 29.0813 18.5663 27.668L17.7703 27.3026C16.8983 26.9 16.4623 26.7 15.9997 26.7C15.537 26.7 15.101 26.9 14.229 27.3026L13.4343 27.668C10.3637 29.0813 8.82766 29.788 7.80766 29.0146C6.785 28.2386 6.95433 26.4946 7.29166 23.0053L7.37966 22.104C7.47566 21.112 7.52366 20.616 7.37966 20.1573C7.23833 19.6973 6.91966 19.3253 6.285 18.584L5.70633 17.9066C3.47033 15.2933 2.353 13.9853 2.74233 12.7306C3.13166 11.476 4.773 11.104 8.053 10.3626L8.901 10.1706C9.833 9.95996 10.2983 9.85463 10.673 9.57063C11.0477 9.28663 11.2863 8.85596 11.7663 7.99463L12.2037 7.21063Z" stroke="#FC5858" stroke-width="1.5"/>
</svg>
