<svg width="24" height="24" viewBox="0 0 24 24" fill="none" xmlns="http://www.w3.org/2000/svg">
<rect width="24" height="24" rx="12" fill="#FC5858"/>
<path d="M7.86539 9.8674L7.51289 11.9074C7.4922 12.027 7.49789 12.1496 7.52955 12.2667C7.56121 12.3839 7.61808 12.4927 7.69619 12.5856C7.77429 12.6784 7.87174 12.7531 7.98171 12.8044C8.09169 12.8557 8.21155 12.8823 8.33289 12.8824L10.9234 12.8824C10.9838 12.8824 11.0436 12.8955 11.0984 12.9209C11.1533 12.9463 11.202 12.9834 11.2411 13.0295C11.2802 13.0756 11.3088 13.1296 11.3249 13.1879C11.341 13.2462 11.3443 13.3073 11.3344 13.3669L11.0029 15.3894C10.9493 15.7178 10.9647 16.0537 11.0479 16.3759C11.0838 16.5089 11.1527 16.6307 11.2481 16.7301C11.3435 16.8294 11.4624 16.9031 11.5939 16.9444L11.6664 16.9679C11.8303 17.0203 12.0081 17.0082 12.1634 16.9339C12.3334 16.8519 12.4574 16.7024 12.5034 16.5249L12.7414 15.6079C12.817 15.316 12.9271 15.0342 13.0694 14.7684C13.2769 14.3799 13.5979 14.0684 13.9319 13.7809L14.6514 13.1609C14.7512 13.0746 14.8292 12.966 14.8789 12.8438C14.9286 12.7216 14.9486 12.5893 14.9374 12.4579L14.5314 7.7614C14.5135 7.55369 14.4184 7.36025 14.2648 7.21926C14.1112 7.07828 13.9104 7.00001 13.7019 6.9999L11.3779 6.9999C9.63689 6.9999 8.15139 8.2129 7.86539 9.8674Z" fill="#161618"/>
<path fill-rule="evenodd" clip-rule="evenodd" d="M16.516 13.2575C16.4193 13.2617 16.3248 13.2284 16.2521 13.1646C16.1795 13.1008 16.1343 13.0113 16.126 12.915L15.641 7.29695C15.6327 7.21329 15.6417 7.12884 15.6672 7.04874C15.6927 6.96864 15.7343 6.89459 15.7894 6.83111C15.8445 6.76762 15.912 6.71603 15.9877 6.67949C16.0634 6.64295 16.1457 6.62223 16.2297 6.61859C16.3137 6.61495 16.3975 6.62846 16.4761 6.65831C16.5547 6.68816 16.6264 6.73372 16.6868 6.7922C16.7472 6.85068 16.795 6.92086 16.8273 6.99844C16.8597 7.07603 16.8759 7.1594 16.875 7.24345L16.875 12.883C16.8749 12.9796 16.8376 13.0725 16.7707 13.1423C16.7038 13.2121 16.6125 13.2533 16.516 13.2575Z" fill="#161618"/>
</svg>
