<svg width="28" height="28" viewBox="0 0 28 28" fill="none" xmlns="http://www.w3.org/2000/svg">
<path d="M9.92839 2.33334H18.0717C18.3424 2.33334 18.5501 2.33334 18.7321 2.35084C20.0247 2.47801 21.0829 3.25501 21.5321 4.30151H6.46805C6.91722 3.25501 7.97539 2.47801 9.26805 2.35084C9.44772 2.33334 9.65539 2.33334 9.92839 2.33334ZM7.36172 5.51018C5.74005 5.51018 4.41005 6.49018 3.96672 7.78984L3.93872 7.87151C4.40305 7.73151 4.88722 7.63818 5.37605 7.57634C6.63605 7.41418 8.22972 7.41418 10.0801 7.41418H18.1207C19.9711 7.41418 21.5636 7.41418 22.8247 7.57634C23.3147 7.63934 23.7977 7.73034 24.2621 7.87151L24.2352 7.78984C23.7919 6.49018 22.4619 5.51018 20.8391 5.51018H7.36172Z" fill="#95EBA3"/>
<path fill-rule="evenodd" clip-rule="evenodd" d="M10.1174 8.79901H17.8827C21.8191 8.79901 23.7884 8.79901 24.8944 9.95051C26.0004 11.102 25.7391 12.88 25.2187 16.4372L24.7264 19.8112C24.3181 22.6007 24.1139 23.996 23.0674 24.8313C22.0209 25.6667 20.4774 25.6667 17.3892 25.6667H10.6109C7.52389 25.6667 5.97923 25.6667 4.93273 24.8313C3.88623 23.996 3.68206 22.6007 3.27373 19.8112L2.78139 16.4383C2.25989 12.88 1.99973 11.102 3.10573 9.95051C4.21173 8.79901 6.18106 8.79901 10.1174 8.79901ZM9.33339 21C9.33339 20.517 9.76856 20.125 10.3052 20.125H17.6949C18.2316 20.125 18.6667 20.517 18.6667 21C18.6667 21.483 18.2316 21.875 17.6949 21.875H10.3052C9.76856 21.875 9.33339 21.483 9.33339 21Z" fill="#95EBA3"/>
</svg>
