<svg width="169" height="170" viewBox="0 0 169 170" fill="none" xmlns="http://www.w3.org/2000/svg">
<circle cx="84.5" cy="85" r="84.5" fill="#E83838" fill-opacity="0.2"/>
<circle cx="84.5" cy="85" r="77.5" fill="#E83838" fill-opacity="0.4"/>
<circle cx="84.5" cy="85.5" r="70" fill="#E83838"/>
<path opacity="0.4" d="M59.2663 91.2536C60.3063 92.7469 62.1463 93.6002 64.253 93.6002L75.1863 93.6002C75.9063 93.6002 76.573 93.8936 77.0263 94.4269C77.5063 94.9602 77.693 95.7069 77.5863 96.4802L76.2263 105.227C75.6397 107.84 77.373 110.774 79.9863 111.654C82.413 112.56 85.2663 111.334 86.413 109.6L97.6663 92.8802L97.9863 92.3469L97.9863 68.7736L97.5863 68.3736L89.133 61.8402C88.013 60.7202 85.4797 60.1069 83.693 60.1069L73.293 60.1069C69.7197 60.1069 66.1197 62.8002 65.3197 66.0802L58.7597 86.0536C58.0663 87.9469 58.253 89.7869 59.2663 91.2536Z" fill="#222121"/>
<path d="M103.107 100.987L105.854 100.987C109.987 100.987 111.667 99.3868 111.667 95.4402L111.667 68.6135C111.667 64.6668 109.987 63.0668 105.854 63.0668L103.107 63.0668C98.9737 63.0668 97.2937 64.6668 97.2937 68.6135L97.2937 95.4401C97.2937 99.3868 98.9737 100.987 103.107 100.987Z" fill="#222121"/>
</svg>
