<svg width="169" height="170" viewBox="0 0 169 170" fill="none" xmlns="http://www.w3.org/2000/svg">
<circle cx="84.5" cy="85" r="84.5" fill="#EBB495" fill-opacity="0.2"/>
<circle cx="84.5" cy="85" r="77.5" fill="#EBB495" fill-opacity="0.4"/>
<circle cx="84.5" cy="85.5" r="70" fill="#EBB495"/>
<path opacity="0.4" d="M110.734 79.7467C109.694 78.2533 107.854 77.4 105.747 77.4H94.8137C94.0937 77.4 93.427 77.1067 92.9737 76.5733C92.4937 76.04 92.307 75.2933 92.4137 74.52L93.7737 65.7733C94.3603 63.16 92.627 60.2267 90.0137 59.3467C87.587 58.44 84.7337 59.6667 83.587 61.4L72.3337 78.12L72.0137 78.6533V102.227L72.4137 102.627L80.867 109.16C81.987 110.28 84.5203 110.893 86.307 110.893H96.707C100.28 110.893 103.88 108.2 104.68 104.92L111.24 84.9467C111.934 83.0533 111.747 81.2133 110.734 79.7467Z" fill="#222121"/>
<path d="M66.893 70.0134H64.1463C60.013 70.0134 58.333 71.6134 58.333 75.5601V102.387C58.333 106.333 60.013 107.933 64.1463 107.933H66.893C71.0263 107.933 72.7063 106.333 72.7063 102.387V75.5601C72.7063 71.6134 71.0263 70.0134 66.893 70.0134Z" fill="#222121"/>
</svg>
