<svg width="17" height="17" viewBox="0 0 17 17" fill="none" xmlns="http://www.w3.org/2000/svg">
<path fill-rule="evenodd" clip-rule="evenodd" d="M6.5 10.5C4.291 10.5 2.5 8.709 2.5 6.5C2.5 4.291 4.291 2.5 6.5 2.5C8.709 2.5 10.5 4.291 10.5 6.5C10.5 8.709 8.709 10.5 6.5 10.5ZM16.207 14.793L11.387 9.973C12.085 8.992 12.5 7.796 12.5 6.5C12.5 3.187 9.813 0.5 6.5 0.5C3.187 0.5 0.5 3.187 0.5 6.5C0.5 9.813 3.187 12.5 6.5 12.5C7.796 12.5 8.992 12.085 9.973 11.387L14.793 16.207C14.988 16.402 15.244 16.5 15.5 16.5C15.756 16.5 16.012 16.402 16.207 16.207C16.598 15.816 16.598 15.184 16.207 14.793Z" fill="#5C5F62"/>
</svg>
