<svg
  width="17"
  height="16"
  viewBox="0 0 17 16"
  fill="none"
  xmlns="http://www.w3.org/2000/svg"
>
  <path
    fill-rule="evenodd"
    clip-rule="evenodd"
    d="M8.50005 11C6.84305 11 5.50005 9.657 5.50005 8C5.50005 6.343 6.84305 5 8.50005 5C10.157 5 11.5 6.343 11.5 8C11.5 9.657 10.157 11 8.50005 11ZM15.976 9.754C14.582 9 14.582 7 15.976 6.246C16.218 6.115 16.395 5.89 16.466 5.625C16.537 5.359 16.496 5.076 16.352 4.842L15.285 3.109C15.007 2.658 14.425 2.502 13.958 2.754L13.511 2.997C12.182 3.716 10.566 2.753 10.566 1.242V1C10.566 0.448 10.119 0 9.56605 0H7.43405C6.88105 0 6.43405 0.448 6.43405 1V1.242C6.43405 2.753 4.81805 3.716 3.48905 2.997L3.04205 2.754C2.57505 2.502 1.99305 2.658 1.71505 3.109L0.648049 4.842C0.504049 5.076 0.463049 5.359 0.534049 5.625C0.605049 5.89 0.782049 6.115 1.02405 6.246C2.41805 7 2.41805 9 1.02405 9.754C0.782049 9.885 0.605049 10.11 0.534049 10.375C0.463049 10.641 0.504049 10.924 0.648049 11.158L1.71505 12.891C1.99305 13.342 2.57505 13.498 3.04205 13.246L3.48905 13.003C4.81805 12.284 6.43405 13.247 6.43405 14.758V15C6.43405 15.552 6.88105 16 7.43405 16H9.56605C10.119 16 10.566 15.552 10.566 15V14.758C10.566 13.247 12.182 12.284 13.511 13.003L13.958 13.246C14.425 13.498 15.007 13.342 15.285 12.891L16.352 11.158C16.496 10.924 16.537 10.641 16.466 10.375C16.395 10.11 16.218 9.885 15.976 9.754Z"
    fill="currentColor"
  />
</svg>