<svg width="121" height="121" viewBox="0 0 121 121" fill="none" xmlns="http://www.w3.org/2000/svg">
<rect x="1.16667" y="1.16667" width="118.667" height="118.667" rx="59.3333" fill="black"/>
<rect x="1.16667" y="1.16667" width="118.667" height="118.667" rx="59.3333" stroke="url(#paint0_linear_1_10358)" stroke-width="1.33333"/>
<path d="M34.1407 69.0816C32.7853 69.0816 31.4771 68.9162 30.2163 68.5852C28.9712 68.2384 27.9547 67.7972 27.1666 67.2613L28.7033 63.8097C29.444 64.2825 30.2951 64.6766 31.2565 64.9918C32.2337 65.2912 33.2029 65.4409 34.1643 65.4409C34.8105 65.4409 35.3306 65.3858 35.7246 65.2755C36.1186 65.1494 36.4023 64.9918 36.5757 64.8026C36.7648 64.5978 36.8594 64.3613 36.8594 64.0934C36.8594 63.7152 36.686 63.4157 36.3393 63.1951C35.9926 62.9744 35.5434 62.7932 34.9918 62.6513C34.4401 62.5095 33.8255 62.3676 33.1478 62.2258C32.4858 62.0839 31.816 61.9027 31.1383 61.682C30.4763 61.4614 29.8696 61.1777 29.3179 60.831C28.7663 60.4685 28.3171 60.0035 27.9704 59.4362C27.6237 58.853 27.4503 58.1202 27.4503 57.2376C27.4503 56.2446 27.7182 55.3463 28.2541 54.5425C28.8057 53.7387 29.6253 53.0925 30.7128 52.604C31.8002 52.1154 33.1556 51.8711 34.779 51.8711C35.8665 51.8711 36.9303 51.9972 37.9705 52.2493C39.0265 52.4858 39.9642 52.8404 40.7838 53.3132L39.3417 56.7884C38.5536 56.3629 37.7735 56.0476 37.0012 55.8428C36.229 55.6221 35.4803 55.5118 34.7553 55.5118C34.1092 55.5118 33.5891 55.5827 33.195 55.7246C32.801 55.8506 32.5173 56.024 32.344 56.2446C32.1706 56.4653 32.0839 56.7175 32.0839 57.0012C32.0839 57.3636 32.2494 57.6552 32.5804 57.8759C32.9271 58.0808 33.3763 58.2541 33.9279 58.396C34.4953 58.5221 35.11 58.656 35.7719 58.7979C36.4496 58.9397 37.1194 59.121 37.7814 59.3416C38.4591 59.5465 39.0737 59.8302 39.6254 60.1927C40.177 60.5394 40.6183 61.0043 40.9493 61.5875C41.296 62.1549 41.4694 62.872 41.4694 63.7388C41.4694 64.7002 41.1935 65.5907 40.6419 66.4102C40.1061 67.214 39.2944 67.8602 38.2069 68.3488C37.1352 68.8374 35.7798 69.0816 34.1407 69.0816Z" fill="white"/>
<path d="M43.6316 68.7507V52.2021H51.1966C52.7097 52.2021 54.0099 52.4464 55.0974 52.9349C56.2006 53.4235 57.0517 54.1327 57.6506 55.0626C58.2495 55.9767 58.549 57.0642 58.549 58.325C58.549 59.5701 58.2495 60.6497 57.6506 61.5638C57.0517 62.478 56.2006 63.1872 55.0974 63.6915C54.0099 64.1801 52.7097 64.4244 51.1966 64.4244H46.2321L48.3125 62.3913V68.7507H43.6316ZM48.3125 62.8877L46.2321 60.7364H50.913C51.8901 60.7364 52.6151 60.5236 53.0879 60.0981C53.5765 59.6726 53.8208 59.0816 53.8208 58.325C53.8208 57.5528 53.5765 56.9539 53.0879 56.5283C52.6151 56.1028 51.8901 55.89 50.913 55.89H46.2321L48.3125 53.7387V62.8877Z" fill="white"/>
<path d="M78.585 68.7507V52.2021H86.15C87.6631 52.2021 88.9633 52.4464 90.0508 52.9349C91.154 53.4235 92.0051 54.1327 92.604 55.0626C93.2029 55.9767 93.5023 57.0642 93.5023 58.325C93.5023 59.5701 93.2029 60.6497 92.604 61.5638C92.0051 62.4622 91.154 63.1557 90.0508 63.6442C88.9633 64.1171 87.6631 64.3535 86.15 64.3535H81.1855L83.2659 62.3913V68.7507H78.585ZM88.8215 68.7507L84.7079 62.7223H89.6962L93.8333 68.7507H88.8215ZM83.2659 62.8877L81.1855 60.7364H85.8663C86.8435 60.7364 87.5685 60.5236 88.0413 60.0981C88.5299 59.6726 88.7742 59.0816 88.7742 58.325C88.7742 57.5528 88.5299 56.9539 88.0413 56.5283C87.5685 56.1028 86.8435 55.89 85.8663 55.89H81.1855L83.2659 53.7387V62.8877Z" fill="white"/>
<mask id="mask0_1_10358" style="mask-type:alpha" maskUnits="userSpaceOnUse" x="57" y="52" width="11" height="18">
<rect x="57.5437" y="52.0637" width="9.90848" height="17.0652" fill="#D9D9D9"/>
</mask>
<g mask="url(#mask0_1_10358)">
<path d="M57.8761 68.8452L65.1811 52.2966H69.7911L77.1198 68.8452H72.2497L66.5287 54.5898H68.3726L62.6516 68.8452H57.8761ZM61.8714 65.6301L63.0771 62.1785H71.1623L72.368 65.6301H61.8714Z" fill="#928C8C"/>
</g>
<mask id="mask1_1_10358" style="mask-type:alpha" maskUnits="userSpaceOnUse" x="67" y="52" width="11" height="18">
<rect width="9.90848" height="17.0652" transform="matrix(-1 0 0 1 77.7378 52.0637)" fill="#D9D9D9"/>
</mask>
<g mask="url(#mask1_1_10358)">
<path d="M77.4054 68.8452L70.1004 52.2966H65.4904L58.1617 68.8452H63.0317L68.7528 54.5898H66.9088L72.6299 68.8452H77.4054ZM73.4101 65.6301L72.2044 62.1785H64.1192L62.9135 65.6301H73.4101Z" fill="white"/>
</g>
<defs>
<linearGradient id="paint0_linear_1_10358" x1="120.5" y1="120.5" x2="53.1855" y2="-24.037" gradientUnits="userSpaceOnUse">
<stop stop-color="#464646"/>
<stop offset="1" stop-color="#1A1A1A"/>
</linearGradient>
</defs>
</svg>
