<svg width="30" height="29" viewBox="0 0 30 29" fill="none" xmlns="http://www.w3.org/2000/svg">
<path d="M16.2839 2.02447C15.8798 0.780695 14.1202 0.780702 13.7161 2.02447L11.0874 10.1147H2.58076C1.27299 10.1147 0.729239 11.7882 1.78725 12.5569L8.66925 17.557L6.04056 25.6473C5.63644 26.891 7.05998 27.9253 8.118 27.1566L15 22.1565L21.882 27.1566C22.94 27.9253 24.3636 26.891 23.9594 25.6473L21.3307 17.557L28.2127 12.5569C29.2708 11.7882 28.727 10.1147 27.4192 10.1147H18.9126L16.2839 2.02447ZM11.0537 10.2184C11.0538 10.2183 11.0538 10.2181 11.0538 10.218L11.0537 10.2184ZM8.75742 17.621C8.75727 17.6209 8.75713 17.6208 8.75698 17.6207L8.75742 17.621ZM15.0882 22.0925C15.0881 22.0926 15.0879 22.0926 15.0878 22.0927L15.0882 22.0925Z" fill="#95EBA3" stroke="url(#paint0_linear_229_14087)" stroke-width="1.5"/>
<defs>
<linearGradient id="paint0_linear_229_14087" x1="30" y1="30.5" x2="13.1714" y2="-5.63424" gradientUnits="userSpaceOnUse">
<stop stop-color="#95EBA3"/>
<stop offset="1" stop-color="#126D21"/>
</linearGradient>
</defs>
</svg>
