<svg width="36" height="36" viewBox="0 0 36 36" fill="none" xmlns="http://www.w3.org/2000/svg">
<circle cx="18" cy="18" r="18" fill="#95EBA3"/>
<path d="M9.67383 20.6351C9.89039 21.41 10.2106 22.1591 10.6291 22.8621C11.5433 24.3978 12.8872 25.6479 14.4968 26.4631C16.1064 27.2783 17.9149 27.6249 19.7043 27.4605C21.4937 27.2961 23.1893 26.6273 24.5848 25.5323C25.9805 24.4371 27.0156 22.9628 27.5627 21.2871C28.1098 19.6115 28.1446 17.809 27.6646 16.0985C27.1847 14.3882 26.2112 12.8441 24.8644 11.6515C23.8638 10.7653 22.6883 10.1006 21.4204 9.69629L21.3992 10.7834C22.4204 11.1498 23.3668 11.7075 24.1822 12.4296C25.3828 13.4929 26.2465 14.8656 26.6714 16.3799C27.0962 17.8941 27.0646 19.486 26.5821 20.9638C26.0996 22.4416 25.186 23.7447 23.9497 24.7148C22.7133 25.685 21.2064 26.281 19.6103 26.4277C18.0141 26.5744 16.399 26.2651 14.9613 25.537C13.5235 24.8088 12.3269 23.694 11.5147 22.3296C11.2012 21.8029 10.9501 21.2478 10.7641 20.6751L9.67383 20.6351Z" fill="#2B2B2B" stroke="#2B2B2B" stroke-width="0.5"/>
<path d="M18.8967 8.35639C18.8932 7.94246 18.8914 7.7355 18.7528 7.60651C18.6142 7.47751 18.3432 7.49092 17.9535 7.51773C16.8157 7.59601 15.6987 7.84849 14.6439 8.26748C13.3245 8.7916 12.1282 9.566 11.1233 10.5465C10.1183 11.527 9.32454 12.6943 8.78717 13.9819C8.36079 15.0035 8.10247 16.0849 8.01993 17.1867C7.99071 17.5768 7.9761 17.8487 8.10462 17.9891C8.23313 18.1295 8.43929 18.1313 8.8516 18.1347H18.0145C18.4334 18.1383 18.6428 18.14 18.7725 18.0097C18.9021 17.8793 18.9003 17.6688 18.8967 17.2478V8.35639Z" fill="#2B2B2B"/>
</svg>
