<svg width="37" height="36" viewBox="0 0 37 36" fill="none" xmlns="http://www.w3.org/2000/svg">
<circle cx="18.5" cy="18" r="18" fill="#95EBA3" fill-opacity="0.5"/>
<path d="M10.1738 20.6351C10.3904 21.41 10.7106 22.1591 11.1291 22.8621C12.0433 24.3978 13.3872 25.6479 14.9968 26.4631C16.6064 27.2783 18.4149 27.6249 20.2043 27.4605C21.9937 27.2961 23.6893 26.6273 25.0848 25.5323C26.4805 24.4371 27.5156 22.9628 28.0627 21.2871C28.6098 19.6115 28.6446 17.809 28.1646 16.0985C27.6847 14.3882 26.7112 12.8441 25.3644 11.6515C24.3638 10.7653 23.1883 10.1006 21.9204 9.69629L21.8992 10.7834C22.9204 11.1498 23.8668 11.7075 24.6822 12.4296C25.8828 13.4929 26.7465 14.8656 27.1714 16.3799C27.5962 17.8941 27.5646 19.486 27.0821 20.9638C26.5996 22.4416 25.686 23.7447 24.4497 24.7148C23.2133 25.685 21.7064 26.281 20.1103 26.4277C18.5141 26.5744 16.899 26.2651 15.4613 25.537C14.0235 24.8088 12.8269 23.694 12.0147 22.3296C11.7012 21.8029 11.4501 21.2478 11.2641 20.6751L10.1738 20.6351Z" fill="white" stroke="white" stroke-width="0.5"/>
<path d="M19.3967 8.35639C19.3932 7.94246 19.3914 7.7355 19.2528 7.60651C19.1142 7.47751 18.8432 7.49092 18.4535 7.51773C17.3157 7.59601 16.1987 7.84849 15.1439 8.26748C13.8245 8.7916 12.6282 9.566 11.6233 10.5465C10.6183 11.527 9.82454 12.6943 9.28717 13.9819C8.86079 15.0035 8.60247 16.0849 8.51993 17.1867C8.49071 17.5768 8.4761 17.8487 8.60462 17.9891C8.73313 18.1295 8.93929 18.1313 9.3516 18.1347H18.5145C18.9334 18.1383 19.1428 18.14 19.2725 18.0097C19.4021 17.8793 19.4003 17.6688 19.3967 17.2478V8.35639Z" fill="white"/>
</svg>
