<svg width="101" height="100" viewBox="0 0 101 100" fill="none" xmlns="http://www.w3.org/2000/svg">
<g clip-path="url(#clip0_65_11683)">
<g filter="url(#filter0_d_65_11683)">
<path d="M21.8203 49.6748C21.8203 33.6585 34.8041 20.6748 50.8203 20.6748C66.8366 20.6748 79.8203 33.6585 79.8203 49.6748C79.8203 65.6911 66.8366 78.6748 50.8203 78.6748C34.8041 78.6748 21.8203 65.6911 21.8203 49.6748Z" fill="#95EBA3"/>
<path d="M68.9309 41.3223C68.9871 42.1128 68.7563 42.897 68.2808 43.5309L50.1746 61.6371C48.8578 62.9539 46.8826 62.9539 45.5658 61.6371L35.6897 51.761C35.2142 51.1271 34.9834 50.3429 35.0395 49.5524C35.0957 48.762 35.4351 48.0183 35.9955 47.458C36.5558 46.8976 37.2995 46.5582 38.0899 46.502C38.8804 46.4459 39.6646 46.6767 40.2985 47.1522L47.8702 54.7238L63.672 38.9221C64.3059 38.4466 65.0901 38.2158 65.8805 38.272C66.671 38.3281 67.4146 38.6675 67.975 39.2279C68.5353 39.7882 68.8747 40.5319 68.9309 41.3223Z" fill="#2B2B2B"/>
</g>
<g opacity="0.55">
<path d="M21.8203 107.675C21.8203 123.691 34.8041 136.675 50.8203 136.675C66.8366 136.675 79.8203 123.691 79.8203 107.675C79.8203 91.6585 66.8366 78.6748 50.8203 78.6748C34.8041 78.6748 21.8203 91.6585 21.8203 107.675Z" fill="url(#paint0_linear_65_11683)"/>
<path d="M68.9309 116.027C68.9871 115.237 68.7563 114.453 68.2808 113.819L50.1746 95.7125C48.8578 94.3957 46.8826 94.3957 45.5658 95.7125L35.6897 105.589C35.2142 106.223 34.9834 107.007 35.0395 107.797C35.0957 108.588 35.4351 109.331 35.9955 109.892C36.5558 110.452 37.2995 110.791 38.0899 110.848C38.8804 110.904 39.6646 110.673 40.2985 110.197L47.8702 102.626L63.672 118.428C64.3059 118.903 65.0901 119.134 65.8805 119.078C66.671 119.021 67.4146 118.682 67.975 118.122C68.5353 117.561 68.8747 116.818 68.9309 116.027Z" fill="#2B2B2B"/>
</g>
<circle cx="30.2383" cy="18" r="2" stroke="#95EBA3"/>
<circle opacity="0.5" cx="79.543" cy="57.1973" r="2" transform="rotate(180 79.543 57.1973)" stroke="white"/>
<circle cx="24.1099" cy="24.815" r="4.70367" stroke="white" stroke-width="0.5"/>
<circle cx="85.0352" cy="64.8066" r="5.02734" transform="rotate(180 85.0352 64.8066)" stroke="#95EBA3" stroke-width="0.5"/>
<circle cx="81.5508" cy="18.1748" r="2" stroke="white"/>
<path d="M81.5508 14.2451L81.5508 10.2451" stroke="white" stroke-linecap="round"/>
<path d="M81.5508 26.2295L81.5508 22.2295" stroke="white" stroke-linecap="round"/>
<path d="M84.375 15.4141L87.2034 12.5856" stroke="white" stroke-linecap="round"/>
<path d="M75.9023 23.8887L78.7308 21.0602" stroke="white" stroke-linecap="round"/>
<path d="M85.543 18.2373L89.543 18.2373" stroke="white" stroke-linecap="round"/>
<path d="M73.5586 18.2373L77.5586 18.2373" stroke="white" stroke-linecap="round"/>
<path d="M84.375 21.0605L87.2034 23.889" stroke="white" stroke-linecap="round"/>
<path d="M75.9023 12.5859L78.7308 15.4144" stroke="white" stroke-linecap="round"/>
<g opacity="0.7">
<circle cx="21.8202" cy="73.6034" r="1.32411" stroke="white" stroke-width="0.5"/>
<path d="M21.8203 71.1289L21.8203 68.6103" stroke="white" stroke-width="0.5" stroke-linecap="round"/>
<path d="M21.8203 78.6748L21.8203 76.1562" stroke="white" stroke-width="0.5" stroke-linecap="round"/>
<path d="M23.5977 71.8652L25.3786 70.0843" stroke="white" stroke-width="0.5" stroke-linecap="round"/>
<path d="M18.2617 77.2012L20.0426 75.4203" stroke="white" stroke-width="0.5" stroke-linecap="round"/>
<path d="M24.332 73.6426L26.8506 73.6426" stroke="white" stroke-width="0.5" stroke-linecap="round"/>
<path d="M16.7891 73.6426L19.3076 73.6426" stroke="white" stroke-width="0.5" stroke-linecap="round"/>
<path d="M23.5977 75.4199L25.3786 77.2008" stroke="white" stroke-width="0.5" stroke-linecap="round"/>
<path d="M18.2617 70.084L20.0426 71.8649" stroke="white" stroke-width="0.5" stroke-linecap="round"/>
</g>
</g>
<defs>
<filter id="filter0_d_65_11683" x="19.1536" y="20.6748" width="63.3333" height="64.6667" filterUnits="userSpaceOnUse" color-interpolation-filters="sRGB">
<feFlood flood-opacity="0" result="BackgroundImageFix"/>
<feColorMatrix in="SourceAlpha" type="matrix" values="0 0 0 0 0 0 0 0 0 0 0 0 0 0 0 0 0 0 127 0" result="hardAlpha"/>
<feOffset dy="4"/>
<feGaussianBlur stdDeviation="1.33333"/>
<feComposite in2="hardAlpha" operator="out"/>
<feColorMatrix type="matrix" values="0 0 0 0 0 0 0 0 0 0 0 0 0 0 0 0 0 0 0.95 0"/>
<feBlend mode="normal" in2="BackgroundImageFix" result="effect1_dropShadow_65_11683"/>
<feBlend mode="normal" in="SourceGraphic" in2="effect1_dropShadow_65_11683" result="shape"/>
</filter>
<linearGradient id="paint0_linear_65_11683" x1="50.8203" y1="78.6748" x2="50.8203" y2="136.675" gradientUnits="userSpaceOnUse">
<stop stop-color="#95EBA3"/>
<stop offset="0.26" stop-color="#2B2B2B"/>
</linearGradient>
<clipPath id="clip0_65_11683">
<rect width="100" height="100" fill="white" transform="translate(0.875)"/>
</clipPath>
</defs>
</svg>
