<svg width="21" height="21" viewBox="0 0 21 21" fill="none" xmlns="http://www.w3.org/2000/svg">
<path d="M0.344727 10.7399C0.344727 5.21702 4.82188 0.739868 10.3447 0.739868C15.8676 0.739868 20.3447 5.21702 20.3447 10.7399C20.3447 16.2627 15.8676 20.7399 10.3447 20.7399C4.82188 20.7399 0.344727 16.2627 0.344727 10.7399Z" fill="#95EBA3"/>
<path d="M16.5899 7.85952C16.6093 8.13209 16.5297 8.4025 16.3658 8.62111L10.1222 14.8646C9.66817 15.3187 8.98706 15.3187 8.53298 14.8646L5.12743 11.4591C4.96348 11.2405 4.88388 10.9701 4.90325 10.6975C4.92262 10.4249 5.03966 10.1685 5.23288 9.97526C5.4261 9.78204 5.68254 9.665 5.9551 9.64563C6.22767 9.62626 6.49808 9.70585 6.71669 9.86981L9.32761 12.4807L14.7765 7.03185C14.9951 6.86789 15.2655 6.7883 15.5381 6.80767C15.8106 6.82704 16.0671 6.94408 16.2603 7.1373C16.4535 7.33052 16.5706 7.58695 16.5899 7.85952Z" fill="#4B4B4B"/>
</svg>
