<svg width="26" height="26" viewBox="0 0 26 26" fill="none" xmlns="http://www.w3.org/2000/svg">
<path fill-rule="evenodd" clip-rule="evenodd" d="M19.7653 22.1579H13.602L9.96039 19.7296V9.94058L14.0149 3.18095C14.4041 3.23157 14.7062 3.56378 14.7062 3.96559V9.50238C14.7062 10.3756 15.4133 11.0843 16.2881 11.0843H22.2252L19.7653 22.1579ZM25.4318 8.51367C25.1312 8.13875 24.6772 7.92044 24.1978 7.92044H17.8701V3.96559C17.8701 1.78568 16.0967 0.0107422 13.9152 0.0107422H13.1243C12.5674 0.0107422 12.0533 0.301819 11.767 0.777983L7.48149 7.92044H2.05069C1.17588 7.92044 0.46875 8.62915 0.46875 9.50238V20.576C0.46875 21.4492 1.17588 22.1579 2.05069 22.1579H7.89912L12.2463 25.056C12.5057 25.2284 12.811 25.3218 13.1243 25.3218H21.034C21.7759 25.3218 22.4166 24.8061 22.5779 24.0831L25.7418 9.84566C25.8462 9.37741 25.7307 8.88701 25.4318 8.51367Z" fill="#282828"/>
</svg>
