<svg width="26" height="26" viewBox="0 0 26 26" fill="none" xmlns="http://www.w3.org/2000/svg">
<path fill-rule="evenodd" clip-rule="evenodd" d="M19.4608 22.6592H13.2976L9.65594 20.2309V10.4419L13.7105 3.68223C14.0996 3.73285 14.4018 4.06506 14.4018 4.46687V10.0037C14.4018 10.8769 15.1089 11.5856 15.9837 11.5856H21.9207L19.4608 22.6592ZM25.1273 9.01495C24.8267 8.64003 24.3727 8.42172 23.8934 8.42172H17.5656V4.46687C17.5656 2.28696 15.7923 0.512024 13.6108 0.512024H12.8198C12.263 0.512024 11.7489 0.803101 11.4625 1.27926L7.17705 8.42172H1.74625C0.871434 8.42172 0.164307 9.13043 0.164307 10.0037V21.0772C0.164307 21.9505 0.871434 22.6592 1.74625 22.6592H7.59468L11.9418 25.5573C12.2013 25.7297 12.5066 25.8231 12.8198 25.8231H20.7295C21.4715 25.8231 22.1121 25.3073 22.2735 24.5844L25.4374 10.3469C25.5418 9.87869 25.4263 9.38829 25.1273 9.01495Z" fill="#95EBA3"/>
</svg>
