<svg width="26" height="26" viewBox="0 0 26 26" fill="none" xmlns="http://www.w3.org/2000/svg">
<path fill-rule="evenodd" clip-rule="evenodd" d="M19.4608 3.67584H13.2976L9.65594 6.10412V15.8932L13.7105 22.6528C14.0996 22.6022 14.4018 22.27 14.4018 21.8681V16.3314C14.4018 15.4581 15.1089 14.7494 15.9837 14.7494H21.9207L19.4608 3.67584ZM25.1273 17.3201C24.8267 17.695 24.3727 17.9133 23.8934 17.9133H17.5656V21.8681C17.5656 24.0481 15.7923 25.823 13.6108 25.823H12.8198C12.263 25.823 11.7489 25.5319 11.4625 25.0558L7.17705 17.9133H1.74625C0.871434 17.9133 0.164307 17.2046 0.164307 16.3314V5.25778C0.164307 4.38455 0.871434 3.67584 1.74625 3.67584H7.59468L11.9418 0.777729C12.2013 0.605297 12.5066 0.511963 12.8198 0.511963H20.7295C21.4715 0.511963 22.1121 1.02768 22.2735 1.75062L25.4374 15.9881C25.5418 16.4563 25.4263 16.9467 25.1273 17.3201Z" fill="#000000"/>
</svg>
