<svg xmlns="http://www.w3.org/2000/svg" width="38" height="38" viewBox="0 0 38 38" fill="none">
  <path fill-rule="evenodd" clip-rule="evenodd" d="M0 19C0 24.0391 2.00178 28.8718 5.56497 32.435C9.12816 35.9982 13.9609 38 19 38C24.0391 38 28.8718 35.9982 32.435 32.435C35.9982 28.8718 38 24.0391 38 19C38 13.9609 35.9982 9.12816 32.435 5.56497C28.8718 2.00178 24.0391 0 19 0C13.9609 0 9.12816 2.00178 5.56497 5.56497C2.00178 9.12816 0 13.9609 0 19ZM28.88 15.58C29.1544 15.2141 29.2876 14.7615 29.2552 14.3053C29.2228 13.8491 29.0269 13.4199 28.7035 13.0965C28.3801 12.7731 27.9509 12.5772 27.4947 12.5448C27.0385 12.5124 26.5859 12.6456 26.22 12.92L17.1 22.04L12.73 17.67C12.3641 17.3956 11.9115 17.2624 11.4553 17.2948C10.9991 17.3272 10.5699 17.5231 10.2465 17.8465C9.9231 18.1699 9.7272 18.5991 9.69478 19.0553C9.66236 19.5115 9.79559 19.9641 10.07 20.33L15.77 26.03C16.53 26.79 17.67 26.79 18.43 26.03L28.88 15.58Z" fill="#161618"/>
</svg>