<svg width="21" height="21" viewBox="0 0 21 21" fill="none" xmlns="http://www.w3.org/2000/svg">
<path d="M0.344727 10.0732C0.344727 4.5504 4.82188 0.0732422 10.3447 0.0732422C15.8676 0.0732422 20.3447 4.5504 20.3447 10.0732C20.3447 15.5961 15.8676 20.0732 10.3447 20.0732C4.82188 20.0732 0.344727 15.5961 0.344727 10.0732Z" fill="#FFD646"/>
<path d="M10.3451 4.57275C9.79172 4.57275 9.34505 5.01942 9.34505 5.57275V9.90709C9.34505 10.4604 9.79172 10.9071 10.3451 10.9071C10.8984 10.9071 11.3451 10.4604 11.3451 9.90709V5.57275C11.3451 5.29609 11.2317 5.04609 11.0517 4.86609C10.8717 4.68609 10.6217 4.57275 10.3451 4.57275Z" fill="#4B4B4B"/>
<path d="M9.01172 14.2404C9.01172 14.9771 9.60839 15.5738 10.3451 15.5738C11.0817 15.5738 11.6784 14.9768 11.6784 14.2404C11.6784 13.5038 11.0817 12.9071 10.3451 12.9071C9.60839 12.9071 9.01172 13.5038 9.01172 14.2404Z" fill="#4B4B4B"/>
</svg>
