<svg width="20" height="21" viewBox="0 0 20 21" fill="none" xmlns="http://www.w3.org/2000/svg">
<path d="M11.4141 10.4998L17.7071 4.20685C17.8946 4.01934 17.9999 3.76503 17.9999 3.49985C17.9999 3.23467 17.8946 2.98036 17.7071 2.79285C17.5196 2.60534 17.2653 2.5 17.0001 2.5C16.7349 2.5 16.4806 2.60534 16.2931 2.79285L10.0001 9.08585L3.70709 2.79285C3.61425 2.7 3.50403 2.62636 3.38272 2.57611C3.26141 2.52586 3.1314 2.5 3.00009 2.5C2.86879 2.5 2.73877 2.52586 2.61747 2.57611C2.49616 2.62636 2.38594 2.7 2.29309 2.79285C2.10559 2.98036 2.00024 3.23467 2.00024 3.49985C2.00024 3.76503 2.10559 4.01934 2.29309 4.20685L8.58609 10.4998L2.29309 16.7928C2.10559 16.9804 2.00024 17.2347 2.00024 17.4998C2.00024 17.765 2.10559 18.0193 2.29309 18.2069C2.4806 18.3944 2.73492 18.4997 3.00009 18.4997C3.26527 18.4997 3.51959 18.3944 3.70709 18.2069L10.0001 11.9138L16.2931 18.2069C16.3857 18.3 16.4959 18.374 16.6172 18.4244C16.7386 18.4749 16.8687 18.5009 17.0001 18.5009C17.1315 18.5009 17.2616 18.4749 17.3829 18.4244C17.5043 18.374 17.6144 18.3 17.7071 18.2069C17.8 18.1141 17.8738 18.0039 17.9241 17.8825C17.9744 17.7612 18.0003 17.6312 18.0003 17.4998C18.0003 17.3685 17.9744 17.2385 17.9241 17.1172C17.8738 16.9958 17.8 16.8856 17.7071 16.7928L11.4141 10.4998Z" fill="white"/>
</svg>
