<svg width="34" height="14" viewBox="0 0 34 14" fill="none" xmlns="http://www.w3.org/2000/svg">
<path d="M33.0175 7.6276L31.8162 6.59789L31.7989 6.58298C31.572 6.38426 25.2491 0.914539 16.7148 0.914539C8.39291 0.914539 2.17362 6.11544 1.65888 6.55852C1.63301 6.58079 1.61229 6.6006 1.58816 6.62474L0.580256 7.6327C0.321275 7.8917 0.175781 8.24297 0.175781 8.60923C0.175781 9.0124 0.351953 9.39544 0.65806 9.65781L4.34225 12.8157C4.88536 13.2812 5.66108 13.3589 6.2857 13.0102L9.56189 11.1817C10.1023 10.88 10.4372 10.3096 10.4372 9.69065V6.14946C10.4372 5.46418 10.8468 4.84684 11.4993 4.63756C12.6762 4.26012 14.7 3.73847 16.8959 3.73847C19.0919 3.73847 21.1156 4.26012 22.2925 4.63756C22.9451 4.84684 23.3546 5.46418 23.3546 6.14946V9.64776C23.3546 10.2893 23.7142 10.8767 24.2856 11.1685L27.9385 13.0338C28.5902 13.3666 29.3814 13.2472 29.9058 12.7369L33.0812 9.64739C33.346 9.38976 33.4953 9.03602 33.4953 8.66659C33.4953 8.26711 33.3208 7.88758 33.0175 7.6276Z" fill="white"/>
</svg>
