<svg width="21" height="21" viewBox="0 0 21 21" fill="none" xmlns="http://www.w3.org/2000/svg">
<path d="M11.3447 14.4872L11.3447 19.0732C11.3447 19.3385 11.2394 19.5928 11.0518 19.7803C10.8643 19.9679 10.6099 20.0732 10.3447 20.0732C10.0795 20.0732 9.82516 19.9679 9.63762 19.7803C9.45008 19.5928 9.34473 19.3385 9.34473 19.0732L9.34473 14.4872L8.05173 15.7802C7.95888 15.8731 7.84866 15.9467 7.72735 15.997C7.60604 16.0472 7.47603 16.0731 7.34473 16.0731C7.21342 16.0731 7.08341 16.0472 6.9621 15.997C6.84079 15.9467 6.73057 15.8731 6.63773 15.7802C6.54488 15.6874 6.47123 15.5772 6.42099 15.4559C6.37074 15.3346 6.34488 15.2045 6.34488 15.0732C6.34488 14.9419 6.37074 14.8119 6.42099 14.6906C6.47123 14.5693 6.54488 14.4591 6.63773 14.3662L9.63773 11.3662C9.73051 11.2733 9.84072 11.1996 9.96203 11.1492C10.0833 11.0989 10.2134 11.073 10.3447 11.073C10.4761 11.073 10.6061 11.0989 10.7274 11.1492C10.8487 11.1996 10.9589 11.2733 11.0517 11.3662L14.0517 14.3662C14.1446 14.4591 14.2182 14.5693 14.2685 14.6906C14.3187 14.8119 14.3446 14.9419 14.3446 15.0732C14.3446 15.2045 14.3187 15.3346 14.2685 15.4559C14.2182 15.5772 14.1446 15.6874 14.0517 15.7802C13.9589 15.8731 13.8487 15.9467 13.7274 15.997C13.606 16.0472 13.476 16.0731 13.3447 16.0731C13.2134 16.0731 13.0834 16.0472 12.9621 15.997C12.8408 15.9467 12.7306 15.8731 12.6377 15.7802L11.3447 14.4872Z" fill="white"/>
<path d="M14.0517 5.78024L11.0517 8.78024C10.9589 8.87319 10.8487 8.94692 10.7274 8.99724C10.6061 9.04755 10.4761 9.07344 10.3447 9.07344C10.2134 9.07344 10.0833 9.04755 9.96203 8.99724C9.84072 8.94692 9.73051 8.87319 9.63773 8.78024L6.63773 5.78024C6.54454 5.68759 6.47059 5.57743 6.42013 5.45609C6.36967 5.33476 6.34369 5.20465 6.34369 5.07324C6.34369 4.94183 6.36967 4.81172 6.42013 4.69039C6.47059 4.56906 6.54454 4.4589 6.63773 4.36624C6.73051 4.2733 6.84072 4.19956 6.96203 4.14925C7.08335 4.09894 7.21339 4.07304 7.34473 4.07304C7.47606 4.07304 7.6061 4.09894 7.72742 4.14925C7.84873 4.19956 7.95894 4.2733 8.05173 4.36624L9.34473 5.65924L9.34473 1.07324C9.34473 0.808025 9.45008 0.553671 9.63762 0.366135C9.82516 0.178599 10.0795 0.0732417 10.3447 0.0732418C10.6099 0.0732418 10.8643 0.178599 11.0518 0.366135C11.2394 0.553671 11.3447 0.808025 11.3447 1.07324L11.3447 5.65924L12.6377 4.36624C12.7306 4.2734 12.8408 4.19975 12.9621 4.1495C13.0834 4.09925 13.2134 4.07339 13.3447 4.07339C13.476 4.07339 13.606 4.09925 13.7274 4.1495C13.8487 4.19975 13.9589 4.2734 14.0517 4.36624C14.1446 4.45909 14.2182 4.56931 14.2685 4.69062C14.3187 4.81192 14.3446 4.94194 14.3446 5.07324C14.3446 5.20454 14.3187 5.33456 14.2685 5.45587C14.2182 5.57717 14.1446 5.6874 14.0517 5.78024Z" fill="white"/>
<path d="M18.3447 8.07324L14.3447 8.07324L16.3447 6.07324L18.8447 6.07324C19.6732 6.07324 20.3447 6.74481 20.3447 7.57324L20.3447 12.5732C20.3447 13.4017 19.6732 14.0732 18.8447 14.0732L16.3447 14.0732L14.3447 12.0732L18.3447 12.0732L18.3447 8.07324Z" fill="white"/>
<path d="M4.34473 14.0732L6.34473 12.0732L2.34473 12.0732L2.34473 8.07324L6.34473 8.07324L4.34473 6.07324L1.84473 6.07324C1.0163 6.07324 0.344726 6.74481 0.344726 7.57324L0.344726 12.5732C0.344726 13.4017 1.0163 14.0732 1.84473 14.0732L4.34473 14.0732Z" fill="white"/>
</svg>
