<svg width="20" height="21" viewBox="0 0 20 21" fill="none" xmlns="http://www.w3.org/2000/svg">
<g clip-path="url(#clip0_1_20974)">
<path d="M16.7073 6.37018L19.7073 9.37018C19.8003 9.46295 19.874 9.57312 19.9243 9.69446C19.9746 9.8158 20.0005 9.9458 20.0005 10.0771C20.0005 10.1306 19.9961 10.1839 19.9875 10.2365C19.9753 10.313 19.9541 10.3879 19.9243 10.4598C19.874 10.5812 19.8003 10.6913 19.7073 10.7841L16.7073 13.7841C16.6145 13.8773 16.5044 13.9513 16.3831 14.0018C16.321 14.0275 16.2568 14.0469 16.1912 14.0597C16.1284 14.072 16.0645 14.0782 16.0002 14.0782C15.8689 14.0782 15.7388 14.0522 15.6174 14.0018C15.5505 13.9739 15.4871 13.9389 15.428 13.8975C15.3799 13.8638 15.3347 13.8259 15.2932 13.7841C15.2002 13.6913 15.1265 13.5812 15.0762 13.4598C15.0259 13.3385 15 13.2085 15 13.0771C15 12.9458 15.0259 12.8158 15.0762 12.6945C15.1118 12.6088 15.1589 12.5286 15.2163 12.4562C15.2402 12.4261 15.2659 12.3974 15.2932 12.3702L16.5862 11.0771H12.0002C11.7351 11.0771 11.4807 10.9718 11.2932 10.7842C11.1057 10.5967 11.0002 10.3423 11.0002 10.0771C11.0002 9.81195 11.1057 9.55756 11.2932 9.37006C11.4807 9.1825 11.7351 9.07715 12.0002 9.07715H16.5862L15.2932 7.78412C15.1057 7.59662 15.0005 7.34235 15.0005 7.07715C15.0005 6.94586 15.0264 6.81586 15.0764 6.69452C15.1267 6.57324 15.2004 6.46301 15.2932 6.37018C15.386 6.27728 15.4963 6.20367 15.6177 6.15338C15.6948 6.1214 15.7756 6.0993 15.8579 6.08746C15.905 6.08069 15.9526 6.07727 16.0002 6.07727C16.2654 6.07727 16.5198 6.18262 16.7073 6.37018Z" fill="white"/>
<path d="M3.29321 6.37018C3.48071 6.18262 3.73511 6.07727 4.00024 6.07727C4.26538 6.07727 4.51978 6.18262 4.70728 6.37018C4.89478 6.55768 5 6.81195 5 7.07715C5 7.34235 4.89478 7.59662 4.70728 7.78412L3.41431 9.07715H8.00024C8.26538 9.07715 8.51978 9.1825 8.70728 9.37006C8.89478 9.55756 9.00024 9.81195 9.00024 10.0771C9.00024 10.3423 8.89478 10.5967 8.70728 10.7842C8.51978 10.9718 8.26538 11.0771 8.00024 11.0771H3.41431L4.70728 12.3702C4.80005 12.463 4.87378 12.5732 4.92407 12.6945C4.97412 12.8159 5 12.9459 5 13.0771C5 13.1106 4.99829 13.144 4.99512 13.1771C4.99219 13.206 4.98804 13.2347 4.98267 13.2631C4.97607 13.2985 4.96729 13.3336 4.95679 13.3682C4.94727 13.3992 4.93652 13.4297 4.92407 13.4598C4.87378 13.5811 4.80005 13.6913 4.70728 13.7841C4.6145 13.877 4.50415 13.9506 4.38281 14.0009C4.33667 14.0201 4.28906 14.0357 4.24072 14.0477C4.21558 14.0539 4.19043 14.0591 4.16504 14.0634C4.14087 14.0674 4.11646 14.0706 4.0918 14.0729C4.06128 14.0756 4.03076 14.077 4.00024 14.077C3.97119 14.077 3.94214 14.0757 3.91309 14.0732C3.81177 14.0643 3.71216 14.04 3.61768 14.0009C3.49634 13.9506 3.38599 13.877 3.29321 13.7841L0.293213 10.7841C0.200195 10.6913 0.126465 10.5812 0.0761719 10.4598C0.0600586 10.4207 0.0463867 10.3806 0.0351562 10.3398C0.0273438 10.3113 0.020752 10.2825 0.015625 10.2534C0.00537109 10.1954 0 10.1364 0 10.0771C0 9.9458 0.0258789 9.8158 0.0761719 9.69446C0.126465 9.57312 0.200195 9.46295 0.293213 9.37018L3.29321 6.37018Z" fill="white"/>
<path d="M1.00024 1.57715C1.00024 0.748721 1.67182 0.0771484 2.50024 0.0771484H17.5002C18.3287 0.0771484 19.0002 0.748721 19.0002 1.57715V6.07715L17.0002 4.07715V2.07715H3.00024V4.07715L1.00024 6.07715V1.57715Z" fill="white"/>
<path d="M17.0002 18.0771V16.0771L19.0002 14.0771V18.5771C19.0002 19.4056 18.3287 20.0771 17.5002 20.0771H2.50024C1.67182 20.0771 1.00024 19.4056 1.00024 18.5771V14.0771L3.00024 16.0771V18.0771H17.0002Z" fill="white"/>
</g>
<defs>
<clipPath id="clip0_1_20974">
<rect width="20" height="20" fill="white" transform="translate(0 0.0771484)"/>
</clipPath>
</defs>
</svg>
