<svg width="17" height="13" viewBox="0 0 17 13" fill="none" xmlns="http://www.w3.org/2000/svg">
<path fill-rule="evenodd" clip-rule="evenodd" d="M16.6298 6.12794C16.5378 5.89894 14.3128 0.499939 8.70079 0.499939C3.08879 0.499939 0.863794 5.89894 0.771794 6.12794C0.677794 6.36694 0.677794 6.63294 0.771794 6.87194C0.863794 7.10094 3.08879 12.4999 8.70079 12.4999C14.3128 12.4999 16.5378 7.10094 16.6298 6.87194C16.7238 6.63294 16.7238 6.36694 16.6298 6.12794ZM8.70079 10.4999C6.49179 10.4999 4.70079 8.70894 4.70079 6.49994C4.70079 4.29094 6.49179 2.49994 8.70079 2.49994C10.9108 2.49994 12.7008 4.29094 12.7008 6.49994C12.7008 8.70894 10.9108 10.4999 8.70079 10.4999ZM8.70079 4.49994C7.59679 4.49994 6.70079 5.39594 6.70079 6.49994C6.70079 7.60394 7.59679 8.49994 8.70079 8.49994C9.80579 8.49994 10.7008 7.60394 10.7008 6.49994C10.7008 5.39594 9.80579 4.49994 8.70079 4.49994Z" fill="white"/>
</svg>
