<svg width="21" height="21" viewBox="0 0 21 21" fill="none" xmlns="http://www.w3.org/2000/svg">
<path fill-rule="evenodd" clip-rule="evenodd" d="M0.844727 10.0732C0.844727 4.55924 5.33073 0.0732422 10.8447 0.0732422C16.3587 0.0732422 20.8447 4.55924 20.8447 10.0732C20.8447 15.5872 16.3587 20.0732 10.8447 20.0732C5.33073 20.0732 0.844727 15.5872 0.844727 10.0732ZM8.55183 8.78035C8.3643 8.96789 8.10994 9.07324 7.84473 9.07324C7.57951 9.07324 7.32516 8.96789 7.13762 8.78035C6.95008 8.59281 6.84473 8.33846 6.84473 8.07324C6.84473 7.80803 6.95008 7.55367 7.13762 7.36614C7.32516 7.1786 7.57951 7.07324 7.84473 7.07324C8.10994 7.07324 8.3643 7.1786 8.55183 7.36614C8.73937 7.55367 8.84473 7.80803 8.84473 8.07324C8.84473 8.33846 8.73937 8.59281 8.55183 8.78035ZM13.1376 7.36614C13.3252 7.1786 13.5795 7.07324 13.8447 7.07324C14.1099 7.07324 14.3643 7.1786 14.5518 7.36614C14.7394 7.55367 14.8447 7.80803 14.8447 8.07324C14.8447 8.33846 14.7394 8.59281 14.5518 8.78035C14.3643 8.96789 14.1099 9.07324 13.8447 9.07324C13.5795 9.07324 13.3252 8.96789 13.1376 8.78035C12.9501 8.59281 12.8447 8.33846 12.8447 8.07324C12.8447 7.80803 12.9501 7.55367 13.1376 7.36614ZM14.5518 12.3661C14.3643 12.1786 14.1099 12.0732 13.8447 12.0732H7.84473C7.57951 12.0732 7.32516 12.1786 7.13762 12.3661C6.95008 12.5537 6.84473 12.808 6.84473 13.0732C6.84473 13.3385 6.95008 13.5928 7.13762 13.7803C7.32516 13.9679 7.57951 14.0732 7.84473 14.0732H13.8447C14.1099 14.0732 14.3643 13.9679 14.5518 13.7803C14.7394 13.5928 14.8447 13.3385 14.8447 13.0732C14.8447 12.808 14.7394 12.5537 14.5518 12.3661Z" fill="#858585"/>
</svg>
