<svg width="21" height="21" viewBox="0 0 21 21" fill="none" xmlns="http://www.w3.org/2000/svg">
<g clip-path="url(#clip0_223_14010)">
<path fill-rule="evenodd" clip-rule="evenodd" d="M10.8447 0.573242C5.33073 0.573242 0.844727 5.05924 0.844727 10.5732C0.844727 16.0872 5.33073 20.5732 10.8447 20.5732C16.3587 20.5732 20.8447 16.0872 20.8447 10.5732C20.8447 5.05924 16.3587 0.573242 10.8447 0.573242ZM8.55183 8.28035C8.3643 8.46789 8.10994 8.57324 7.84473 8.57324C7.57951 8.57324 7.32516 8.46789 7.13762 8.28035C6.95008 8.09281 6.84473 7.83846 6.84473 7.57324C6.84473 7.30803 6.95008 7.05367 7.13762 6.86614C7.32516 6.6786 7.57951 6.57324 7.84473 6.57324C8.10994 6.57324 8.3643 6.6786 8.55183 6.86614C8.73937 7.05367 8.84473 7.30803 8.84473 7.57324C8.84473 7.83846 8.73937 8.09281 8.55183 8.28035ZM14.5518 8.28035C14.3643 8.46789 14.1099 8.57324 13.8447 8.57324C13.5795 8.57324 13.3252 8.46789 13.1376 8.28035C12.9501 8.09281 12.8447 7.83846 12.8447 7.57324C12.8447 7.30803 12.9501 7.05367 13.1376 6.86614C13.3252 6.6786 13.5795 6.57324 13.8447 6.57324C14.1099 6.57324 14.3643 6.6786 14.5518 6.86614C14.7394 7.05367 14.8447 7.30803 14.8447 7.57324C14.8447 7.83846 14.7394 8.09281 14.5518 8.28035ZM16.6337 12.1508C16.5672 12.3947 16.4852 12.6348 16.3881 12.8693C16.0865 13.5973 15.6446 14.2587 15.0874 14.8159C14.5303 15.373 13.8688 15.815 13.1409 16.1165C12.4129 16.418 11.6327 16.5732 10.8448 16.5732C10.0569 16.5732 9.27664 16.418 8.54869 16.1165C7.82074 15.815 7.1593 15.373 6.60215 14.8159C6.045 14.2587 5.60304 13.5973 5.30151 12.8693C5.20434 12.6348 5.12237 12.3947 5.05589 12.1508C4.97453 11.8522 5.21088 11.5732 5.52032 11.5732H16.1693C16.4787 11.5732 16.715 11.8522 16.6337 12.1508Z" fill="#858585"/>
</g>
<defs>
<clipPath id="clip0_223_14010">
<rect width="20" height="20" fill="white" transform="translate(0.844727 0.573242)"/>
</clipPath>
</defs>
</svg>
