<svg width="21" height="21" viewBox="0 0 21 21" fill="none" xmlns="http://www.w3.org/2000/svg">
<path fill-rule="evenodd" clip-rule="evenodd" d="M18.6298 10.128C18.5378 9.899 16.3128 4.5 10.7008 4.5C5.08879 4.5 2.86379 9.899 2.77179 10.128C2.67779 10.367 2.67779 10.633 2.77179 10.872C2.86379 11.101 5.08879 16.5 10.7008 16.5C16.3128 16.5 18.5378 11.101 18.6298 10.872C18.7238 10.633 18.7238 10.367 18.6298 10.128ZM10.7008 14.5C8.49179 14.5 6.70079 12.709 6.70079 10.5C6.70079 8.291 8.49179 6.5 10.7008 6.5C12.9108 6.5 14.7008 8.291 14.7008 10.5C14.7008 12.709 12.9108 14.5 10.7008 14.5ZM10.7008 8.5C9.59679 8.5 8.70079 9.396 8.70079 10.5C8.70079 11.604 9.59679 12.5 10.7008 12.5C11.8058 12.5 12.7008 11.604 12.7008 10.5C12.7008 9.396 11.8058 8.5 10.7008 8.5Z" fill="white"/>
<path d="M2.70184 17.7935L18.7009 3.2063" stroke="white" stroke-linecap="round"/>
</svg>
