<svg width="17" height="17" viewBox="0 0 17 17" fill="none" xmlns="http://www.w3.org/2000/svg">
<path fill-rule="evenodd" clip-rule="evenodd" d="M5.2325 16.5C4.0215 16.5 2.8805 16.028 2.0245 15.171C0.255504 13.403 0.255504 10.526 2.0245 8.757L3.9905 6.793C4.3805 6.402 5.0135 6.402 5.4045 6.793C5.7945 7.184 5.7945 7.817 5.4045 8.207L3.4385 10.171C2.4505 11.16 2.4505 12.769 3.4385 13.757C4.3995 14.716 6.0695 14.715 7.0255 13.757L8.9915 11.793C9.3815 11.402 10.0145 11.402 10.4065 11.793C10.7965 12.184 10.7965 12.817 10.4065 13.207L8.4405 15.171C7.5855 16.028 6.4445 16.5 5.2325 16.5ZM12.6993 10.5C12.4433 10.5 12.1873 10.402 11.9923 10.207C11.6013 9.816 11.6013 9.183 11.9923 8.793L13.9583 6.829C14.9463 5.84 14.9463 4.231 13.9583 3.243C12.9973 2.284 11.3273 2.286 10.3713 3.243L8.4053 5.207C8.0143 5.598 7.3823 5.598 6.9903 5.207C6.5993 4.816 6.5993 4.183 6.9903 3.793L8.9563 1.829C9.8113 0.972 10.9523 0.5 12.1643 0.5C13.3753 0.5 14.5153 0.972 15.3723 1.829C17.1403 3.597 17.1403 6.474 15.3723 8.243L13.4063 10.207C13.2113 10.402 12.9553 10.5 12.6993 10.5ZM6.6973 11.5C6.4413 11.5 6.1853 11.402 5.9903 11.207C5.5993 10.816 5.5993 10.184 5.9903 9.793L9.9913 5.793C10.3833 5.402 11.0153 5.402 11.4063 5.793C11.7973 6.184 11.7973 6.816 11.4063 7.207L7.4053 11.207C7.2103 11.402 6.9533 11.5 6.6973 11.5Z" fill="white"/>
</svg>
