<svg width="67" height="19" viewBox="0 0 67 19" fill="none" xmlns="http://www.w3.org/2000/svg">
<path d="M7.14105 18.0816C5.78564 18.0816 4.47751 17.9161 3.21666 17.5851C1.97158 17.2384 0.955021 16.7971 0.166992 16.2612L1.70365 12.8097C2.4444 13.2825 3.29547 13.6765 4.25686 13.9917C5.23402 14.2912 6.20329 14.4409 7.16469 14.4409C7.81087 14.4409 8.33097 14.3857 8.72499 14.2754C9.119 14.1493 9.40269 13.9917 9.57606 13.8026C9.76519 13.5977 9.85975 13.3613 9.85975 13.0934C9.85975 12.7151 9.68638 12.4157 9.33965 12.195C8.99292 11.9744 8.54374 11.7931 7.99212 11.6513C7.4405 11.5094 6.82584 11.3676 6.14813 11.2257C5.48619 11.0839 4.81636 10.9026 4.13866 10.682C3.47671 10.4613 2.86993 10.1776 2.31831 9.83092C1.76669 9.46842 1.31751 9.00349 0.970782 8.43611C0.624049 7.85296 0.450683 7.1201 0.450683 6.2375C0.450683 5.24459 0.718612 4.34624 1.25447 3.54245C1.80609 2.73866 2.62564 2.09248 3.71312 1.6039C4.8006 1.11532 6.15601 0.871033 7.77935 0.871033C8.86683 0.871033 9.93067 0.997117 10.9709 1.24929C12.0268 1.4857 12.9646 1.84031 13.7841 2.31313L12.342 5.78833C11.554 5.36279 10.7739 5.04759 10.0016 4.8427C9.22933 4.62205 8.4807 4.51173 7.75571 4.51173C7.10953 4.51173 6.58943 4.58265 6.19541 4.72449C5.8014 4.85058 5.51771 5.02394 5.34434 5.24459C5.17098 5.46524 5.08429 5.7174 5.08429 6.0011C5.08429 6.36359 5.24978 6.65516 5.58075 6.87581C5.92748 7.0807 6.37666 7.25406 6.92828 7.39591C7.49566 7.52199 8.11032 7.65596 8.77227 7.7978C9.44997 7.93965 10.1198 8.12089 10.7817 8.34154C11.4594 8.54643 12.0741 8.83012 12.6257 9.19261C13.1774 9.53935 13.6186 10.0043 13.9496 10.5874C14.2964 11.1548 14.4697 11.8719 14.4697 12.7387C14.4697 13.7001 14.1939 14.5906 13.6423 15.4102C13.1064 16.214 12.2948 16.8601 11.2073 17.3487C10.1356 17.8373 8.78015 18.0816 7.14105 18.0816Z" fill="white"/>
<path d="M16.6319 17.7506V1.202H24.197C25.71 1.202 27.0103 1.44629 28.0978 1.93487C29.201 2.42345 30.0521 3.13268 30.651 4.06255C31.2499 4.97666 31.5493 6.06414 31.5493 7.32498C31.5493 8.57007 31.2499 9.64967 30.651 10.5638C30.0521 11.4779 29.201 12.1871 28.0978 12.6915C27.0103 13.18 25.71 13.4243 24.197 13.4243H19.2324L21.3128 11.3912V17.7506H16.6319ZM21.3128 11.8877L19.2324 9.73635H23.9133C24.8905 9.73635 25.6155 9.52359 26.0883 9.09805C26.5769 8.67251 26.8211 8.08149 26.8211 7.32498C26.8211 6.55272 26.5769 5.95381 26.0883 5.52828C25.6155 5.10274 24.8905 4.88997 23.9133 4.88997H19.2324L21.3128 2.73866V11.8877Z" fill="white"/>
<path d="M51.5853 17.7506V1.202H59.1504C60.6634 1.202 61.9637 1.44629 63.0512 1.93487C64.1544 2.42345 65.0055 3.13268 65.6044 4.06255C66.2033 4.97666 66.5027 6.06414 66.5027 7.32498C66.5027 8.57007 66.2033 9.64967 65.6044 10.5638C65.0055 11.4621 64.1544 12.1556 63.0512 12.6442C61.9637 13.117 60.6634 13.3534 59.1504 13.3534H54.1858L56.2662 11.3912V17.7506H51.5853ZM61.8218 17.7506L57.7083 11.7222H62.6965L66.8337 17.7506H61.8218ZM56.2662 11.8877L54.1858 9.73635H58.8667C59.8439 9.73635 60.5689 9.52359 61.0417 9.09805C61.5303 8.67251 61.7745 8.08149 61.7745 7.32498C61.7745 6.55272 61.5303 5.95381 61.0417 5.52828C60.5689 5.10274 59.8439 4.88997 58.8667 4.88997H54.1858L56.2662 2.73866V11.8877Z" fill="white"/>
<mask id="mask0_1_21681" style="mask-type:alpha" maskUnits="userSpaceOnUse" x="30" y="1" width="11" height="18">
<rect x="30.5439" y="1.06366" width="9.90848" height="17.0652" fill="#D9D9D9"/>
</mask>
<g mask="url(#mask0_1_21681)">
<path d="M30.877 17.8452L38.182 1.29657H42.792L50.1206 17.8452H45.2506L39.5295 3.58973H41.3735L35.6524 17.8452H30.877ZM34.8723 14.63L36.0779 11.1785H44.1631L45.3688 14.63H34.8723Z" fill="#928C8C"/>
</g>
<mask id="mask1_1_21681" style="mask-type:alpha" maskUnits="userSpaceOnUse" x="40" y="1" width="11" height="18">
<rect width="9.90848" height="17.0652" transform="matrix(-1 0 0 1 50.7383 1.06366)" fill="#D9D9D9"/>
</mask>
<g mask="url(#mask1_1_21681)">
<path d="M50.4062 17.8452L43.1012 1.29657H38.4913L31.1626 17.8452H36.0326L41.7537 3.58973H39.9097L45.6308 17.8452H50.4062ZM46.4109 14.63L45.2053 11.1785H37.1201L35.9144 14.63H46.4109Z" fill="white"/>
</g>
</svg>
