<svg width="17" height="16" viewBox="0 0 17 16" fill="none" xmlns="http://www.w3.org/2000/svg">
<path fill-rule="evenodd" clip-rule="evenodd" d="M6.20117 10C3.99217 10 2.20117 8.209 2.20117 6C2.20117 3.791 3.99217 2 6.20117 2C8.41017 2 10.2012 3.791 10.2012 6C10.2012 8.209 8.41017 10 6.20117 10ZM15.9082 14.293L11.0882 9.473C11.7862 8.492 12.2012 7.296 12.2012 6C12.2012 2.687 9.51417 0 6.20117 0C2.88817 0 0.201172 2.687 0.201172 6C0.201172 9.313 2.88817 12 6.20117 12C7.49717 12 8.69317 11.585 9.67417 10.887L14.4942 15.707C14.6892 15.902 14.9452 16 15.2012 16C15.4572 16 15.7132 15.902 15.9082 15.707C16.2992 15.316 16.2992 14.684 15.9082 14.293Z" fill="white"/>
</svg>
