<svg width="24" height="24" viewBox="0 0 24 24" fill="none" xmlns="http://www.w3.org/2000/svg">
<rect x="1" y="1" width="22" height="22" rx="11" stroke="black" stroke-width="2"/>
<path d="M2 12C2 6.47715 6.47715 2 12 2C17.5228 2 22 6.47715 22 12C22 17.5228 17.5228 22 12 22C6.47715 22 2 17.5228 2 12Z" fill="#95EBA3"/>
<path d="M18.2455 9.11917C18.2648 9.39174 18.1852 9.66214 18.0213 9.88075L11.7778 16.1243C11.3237 16.5783 10.6426 16.5783 10.1885 16.1243L6.78295 12.7187C6.61899 12.5001 6.53939 12.2297 6.55877 11.9571C6.57814 11.6846 6.69518 11.4281 6.8884 11.2349C7.08162 11.0417 7.33805 10.9246 7.61062 10.9053C7.88319 10.8859 8.1536 10.9655 8.3722 11.1295L10.9831 13.7404L16.432 8.29149C16.6506 8.12754 16.921 8.04794 17.1936 8.06731C17.4662 8.08668 17.7226 8.20372 17.9158 8.39694C18.109 8.59016 18.2261 8.8466 18.2455 9.11917Z" fill="#2D2D2D"/>
</svg>
