<svg width="17" height="17" viewBox="0 0 17 17" fill="none" xmlns="http://www.w3.org/2000/svg">
<path fill-rule="evenodd" clip-rule="evenodd" d="M8.86523 16.5723C4.45423 16.5723 0.865234 12.9833 0.865234 8.57227C0.865234 4.16127 4.45423 0.572266 8.86523 0.572266C13.2762 0.572266 16.8652 4.16127 16.8652 8.57227C16.8652 12.9833 13.2762 16.5723 8.86523 16.5723ZM11.1582 11.8653C10.9022 11.8653 10.6462 11.7673 10.4512 11.5723L8.15823 9.27927C7.97023 9.09227 7.86523 8.83727 7.86523 8.57227V4.57227C7.86523 4.02027 8.31223 3.57227 8.86523 3.57227C9.41823 3.57227 9.86523 4.02027 9.86523 4.57227V8.15827L11.8652 10.1583C12.2562 10.5493 12.2562 11.1813 11.8652 11.5723C11.6702 11.7673 11.4142 11.8653 11.1582 11.8653Z" fill="#95EBA3"/>
</svg>
