<svg width="21" height="20" viewBox="0 0 21 20" fill="none" xmlns="http://www.w3.org/2000/svg">
<path fill-rule="evenodd" clip-rule="evenodd" d="M11.3816 0.859133C11.0043 0.157799 9.99795 0.157466 9.62029 0.859133L0.630618 17.8405C0.253951 18.5071 0.737284 19.3338 1.50062 19.3338H19.5006C20.264 19.3338 20.7473 18.5071 20.3706 17.8405L11.3816 0.859133ZM9.50062 7.33313C9.50062 6.7798 9.94728 6.33313 10.5006 6.33313C10.7773 6.33313 11.0273 6.44647 11.2073 6.62647C11.3873 6.80647 11.5006 7.05647 11.5006 7.33313V11.6675C11.5006 12.2208 11.054 12.6675 10.5006 12.6675C9.94728 12.6675 9.50062 12.2208 9.50062 11.6675V7.33313ZM10.5006 17.3341C9.76395 17.3341 9.16728 16.7375 9.16728 16.0008C9.16728 15.2641 9.76395 14.6675 10.5006 14.6675C11.2373 14.6675 11.834 15.2641 11.834 16.0008C11.834 16.7371 11.2373 17.3341 10.5006 17.3341Z" fill="white"/>
</svg>
